<?xml version="1.0" encoding="utf-8"?>
<!-- Generator: Adobe Illustrator 16.0.0, SVG Export Plug-In . SVG Version: 6.00 Build 0)  -->
<!DOCTYPE svg PUBLIC "-//W3C//DTD SVG 1.1//EN" "http://www.w3.org/Graphics/SVG/1.1/DTD/svg11.dtd">
<svg version="1.1" id="Layer_1" xmlns="http://www.w3.org/2000/svg" xmlns:xlink="http://www.w3.org/1999/xlink" x="0px" y="0px"
	 width="1080px" height="1080px" viewBox="0 0 1080 1080" enable-background="new 0 0 1080 1080" xml:space="preserve">
<polygon stroke="#000000" stroke-miterlimit="10" points="310.712,370.386 309.438,367.836 308.481,364.968 308.162,363.693 
	308.002,362.259 308.002,360.665 308.481,356.363 308.799,355.087 310.074,352.219 311.19,350.626 312.305,348.873 313.262,347.757 
	314.377,346.641 315.493,345.685 316.608,344.889 317.883,344.092 320.432,342.658 321.707,342.02 323.142,341.382 325.054,340.745 
	327.604,340.108 329.675,339.63 331.269,339.311 332.385,339.151 333.978,338.992 336.209,338.833 339.715,338.833 341.15,338.992 
	342.424,339.151 343.858,339.151 345.452,339.311 349.436,339.948 356.607,340.745 359.157,340.745 360.91,340.586 362.344,340.427 
	364.416,340.108 366.328,339.63 367.762,339.151 368.878,338.674 370.152,337.877 371.427,336.92 372.384,335.965 373.499,335.008 
	374.455,334.052 375.412,332.937 376.527,331.98 377.643,331.183 379.077,330.706 381.148,330.706 383.698,331.024 386.248,331.98 
	387.842,333.255 388.479,334.53 388.001,336.443 385.132,345.048 384.654,346.323 384.177,347.757 383.857,349.191 383.539,350.466 
	383.22,351.901 382.742,353.335 382.264,355.406 381.467,357.797 380.67,359.868 380.192,361.303 379.554,364.171 379.077,366.083 
	378.439,367.996 377.961,369.589 377.483,370.864 377.164,372.299 376.686,374.21 376.049,377.079 375.571,378.992 375.093,380.426 
	374.615,381.7 373.978,384.569 373.658,385.844 373.34,387.278 373.34,388.394 373.818,389.031 375.093,389.191 376.686,389.191 
	378.12,389.031 382.105,388.394 384.177,388.234 386.088,388.712 387.045,390.625 386.726,393.015 385.451,394.928 383.539,395.883 
	382.105,396.202 380.989,396.681 379.554,396.999 378.12,397.159 375.412,397.318 373.818,397.478 371.906,397.955 370.312,399.23 
	369.355,400.983 369.037,402.417 368.878,403.853 368.4,405.286 367.921,406.561 367.444,407.995 366.965,409.27 366.647,410.704 
	366.169,412.138 365.85,413.413 365.372,414.847 364.734,416.122 364.256,417.556 363.938,418.831 363.3,420.266 362.663,421.381 
	362.185,422.656 361.548,424.09 361.069,425.365 360.432,426.799 359.157,429.35 358.36,430.464 357.404,431.739 355.014,435.086 
	353.898,436.042 351.826,437.954 350.711,438.91 349.595,439.707 348.161,440.345 346.567,440.982 344.496,441.779 342.265,442.416 
	340.193,442.895 338.44,443.213 337.484,443.372 335.891,443.532 334.456,443.532 331.588,443.213 329.994,442.895 326.169,441.938 
	324.735,441.46 323.461,440.822 322.026,440.186 320.432,439.07 318.998,437.794 317.883,436.521 316.608,435.086 315.493,433.333 
	313.58,429.508 313.262,428.233 312.624,425.365 312.624,421.859 312.943,419.31 313.421,417.237 314.059,415.803 314.536,414.528 
	315.014,413.094 315.97,411.341 317.086,409.589 318.042,408.474 318.998,407.518 320.114,406.242 321.867,404.489 323.142,403.532 
	324.417,403.373 325.851,403.532 328.082,405.126 329.197,406.083 329.835,407.198 329.994,408.632 329.516,409.907 
	328.879,411.183 328.082,412.138 327.444,413.413 326.648,414.847 326.01,416.281 325.373,419.15 325.213,420.584 325.054,422.178 
	325.373,425.046 325.851,426.481 326.489,427.755 327.285,429.03 328.082,430.146 329.197,431.261 330.472,432.059 331.747,432.695 
	333.182,433.173 334.616,433.492 336.209,433.492 338.281,433.333 340.671,432.695 342.424,431.739 343.699,430.783 345.133,429.35 
	346.408,427.915 347.364,426.641 348.161,425.524 349.436,422.975 350.392,420.425 350.87,418.99 351.667,417.078 352.783,413.731 
	353.26,411.82 354.376,408.474 355.332,405.923 355.97,403.056 356.448,400.983 356.766,398.911 356.448,397.318 355.332,396.681 
	353.898,396.521 352.464,396.521 351.029,396.362 349.595,396.362 348.161,396.202 346.727,396.202 345.292,396.043 
	344.018,395.405 343.221,394.29 343.061,393.015 343.221,391.581 343.699,390.146 344.655,389.031 345.771,388.234 347.842,388.075 
	350.392,388.075 353.101,388.234 355.81,388.553 358.201,388.394 359.794,387.756 360.432,386.64 360.751,385.047 361.069,384.091 
	361.388,382.338 361.866,381.063 362.185,379.629 363.141,376.761 363.459,375.485 363.938,374.051 364.256,372.617 
	365.213,369.748 365.531,368.314 366.009,366.721 366.169,365.765 366.487,364.171 368.4,358.434 368.718,357 369.196,355.406 
	369.515,354.45 369.993,352.857 370.312,351.104 370.631,350.147 370.949,348.554 371.427,347.119 371.906,345.844 372.224,344.889 
	372.065,344.729 371.268,345.367 369.037,346.96 367.762,347.598 366.169,348.235 365.213,348.554 363.619,349.032 362.185,349.35 
	360.751,349.51 352.145,349.51 350.711,349.35 349.436,349.191 347.683,349.032 346.727,348.873 344.974,348.713 343.699,348.554 
	342.265,348.395 340.671,348.235 337.962,348.235 334.934,348.395 333.5,348.554 332.225,348.873 330.791,349.35 329.197,349.988 
	328.4,350.466 326.966,351.263 325.692,352.06 324.576,352.857 323.62,353.812 322.664,355.087 321.707,356.84 321.07,358.594 
	320.911,360.187 320.911,362.1 321.389,364.011 322.026,365.287 322.983,366.402 324.098,367.358 325.692,367.996 327.126,368.314 
	328.241,368.314 329.994,368.473 332.703,368.473 334.137,368.155 335.572,367.677 338.122,366.402 339.874,365.924 
	341.946,366.402 343.699,368.155 344.177,370.227 343.699,371.82 342.743,372.936 340.512,374.848 339.396,375.485 337.962,376.123 
	336.688,376.601 335.253,377.079 333.819,377.398 331.11,377.876 328.241,378.195 326.807,378.195 323.938,377.876 321.867,377.398 
	319.955,376.92 317.086,375.964 315.97,375.167 314.696,374.37 313.58,373.573 312.624,372.617 "/>
<polygon stroke="#000000" stroke-miterlimit="10" points="400.909,371.661 399.476,367.358 399.316,365.924 399.316,364.49 
	399.634,363.056 400.271,361.621 401.068,360.506 402.025,359.39 403.141,358.434 404.416,357.797 405.85,357.478 407.284,357.478 
	408.718,357.797 409.992,358.594 410.949,359.549 411.586,360.825 412.064,362.259 412.064,366.562 411.747,368.155 411.747,369.43 
	412.064,370.705 412.861,371.82 413.978,372.936 415.092,373.892 416.208,375.167 417.96,377.239 419.076,378.195 421.148,380.267 
	422.263,381.541 422.9,382.338 424.017,383.613 425.131,384.569 426.088,385.685 427.683,388.235 428.159,389.669 428.637,391.581 
	429.116,393.653 428.957,395.087 428.479,396.521 427.841,397.796 426.885,398.911 425.292,401.461 424.335,402.576 
	423.539,403.853 422.741,404.967 421.785,406.242 420.988,407.518 420.032,408.792 419.235,410.067 416.526,415.485 
	416.048,416.919 415.57,418.194 415.252,419.628 414.933,421.222 414.614,422.656 414.456,424.09 414.456,425.685 415.092,428.871 
	415.889,430.146 416.688,431.58 417.801,432.536 419.076,433.333 420.669,433.652 423.697,433.652 425.131,433.333 426.566,432.855 
	428,432.218 429.116,431.421 431.506,429.827 432.781,428.871 433.896,427.915 434.853,426.959 435.81,425.685 438.677,422.337 
	441.067,418.512 441.864,417.397 442.661,415.963 443.458,414.688 444.095,413.413 444.893,411.979 445.371,411.023 
	446.326,409.271 446.963,407.995 447.442,406.72 448.08,405.445 449.514,404.648 451.585,405.127 453.02,406.72 453.02,408.474 
	452.542,409.907 451.267,412.616 450.629,413.892 449.833,415.166 448.558,417.716 446.963,420.266 446.167,421.7 445.529,422.497 
	444.732,423.931 443.139,426.481 441.228,429.03 439.952,430.783 438.836,432.377 436.924,434.608 435.81,435.564 433.896,437.477 
	432.622,438.433 431.188,439.39 428.637,440.663 427.203,441.301 425.928,441.938 424.494,442.417 423.219,442.735 421.625,443.054 
	417.96,443.054 415.889,442.895 412.701,442.257 411.426,441.779 409.833,440.982 407.443,439.39 406.327,438.433 405.372,437.477 
	404.416,436.201 403.618,435.086 402.981,433.652 402.343,432.377 402.025,430.942 401.707,429.35 401.387,427.915 401.229,426.481 
	401.229,425.046 401.865,419.31 402.343,417.875 402.822,416.601 403.459,415.166 404.256,413.413 405.212,411.66 406.008,410.227 
	407.125,408.474 408.239,406.879 409.036,405.445 409.992,403.692 411.268,401.939 412.224,400.665 413.499,398.435 
	415.252,395.883 416.048,394.131 416.526,391.74 416.208,389.828 414.614,387.278 413.658,386.004 411.108,383.135 410.152,382.019 
	408.877,381.063 407.603,381.382 406.964,382.816 406.646,384.25 406.168,385.685 405.85,387.119 405.53,388.394 405.053,389.828 
	403.618,393.653 403.141,395.087 402.663,396.362 402.185,397.796 401.387,399.708 400.59,401.461 399.953,402.896 399.156,404.808 
	398.359,406.562 397.562,408.154 396.766,409.907 395.81,411.66 395.013,412.936 394.058,413.732 392.624,413.732 391.349,412.936 
	390.393,411.82 390.551,410.544 391.029,409.11 391.667,407.676 392.145,406.401 392.624,404.967 393.897,402.1 394.375,401.143 
	395.013,399.549 395.65,398.274 396.128,396.84 396.766,395.406 397.244,393.971 397.722,392.697 398.997,389.828 399.316,388.394 
	399.793,386.96 400.112,385.525 400.75,384.091 401.068,382.657 401.387,381.382 401.707,379.947 402.185,378.513 402.502,376.92 
	402.502,375.485 402.185,374.211 "/>
<path stroke="#000000" stroke-miterlimit="10" d="M499.075,403.373l-0.797,1.116l-1.912,2.23l-2.231,1.912l-1.115,0.797
	l-1.435,0.798l-0.956,0.317l-1.593,0.956l-0.957,0.479l-1.434,0.637l-1.595,0.478l-1.434,0.479l-1.434,0.159l-1.595,0.319
	l-1.752,0.159l-1.913,0.318l-1.434,0.16h-1.436l-2.867-0.319l-2.868-0.159l-1.436-0.159l-4.302-0.957h-1.116l-0.796,0.638
	l-0.318,1.115v1.435l-0.16,1.594v2.709l0.16,1.594l0.318,1.275l0.955,2.868l1.594,2.55l0.957,1.115l0.955,0.956l2.55,1.594
	l1.595,0.478l1.434,0.479l1.115,0.16l1.435,0.317l1.435,0.159h1.593l1.435-0.159l4.144-0.797l1.434-0.318l1.436-0.478l1.274-0.479
	l2.708-1.115l2.551-1.275l2.231-1.753l1.115-0.797l1.114-0.956l2.231-2.072l1.913-2.23l0.797-1.115l0.956-1.274l1.593-2.231
	l0.797-1.275l0.638-1.274l0.797-1.274l0.638-1.274l0.796-1.116l0.638-1.274l0.638-1.435l0.638-1.275l0.797-1.274l1.115-0.797h1.434
	l1.435,0.956l0.797,1.435l-0.159,1.434l-0.638,1.435l-0.796,1.754l-0.956,1.752l-0.797,1.753l-0.956,1.753l-0.957,1.594l-1.594,2.55
	l-0.478,0.956l-0.956,1.435l-1.594,2.23l-0.956,1.115l-0.956,0.957l-0.956,1.115l-1.116,1.274l-0.478,0.638l-1.116,1.274
	l-0.956,1.116l-2.231,1.912l-1.593,1.275l-1.434,1.273l-2.55,1.594l-3.984,1.753l-1.275,0.479l-1.434,0.478l-2.072,0.319
	l-1.912,0.479l-3.347,0.318l-2.072,0.159l-1.752,0.16h-1.434l-5.738-0.638l-1.274-0.318l-1.435-0.479l-1.434-0.637l-1.274-0.638
	l-2.551-1.435l-1.274-0.637l-1.115-0.957l-1.116-1.115l-0.637-0.796l-1.115-1.274l-0.956-1.116l-0.797-1.275l-0.637-1.114
	l-0.639-1.436l-0.478-1.274l-0.479-1.435l-0.318-1.434l-0.318-1.274l-0.32-1.435l-0.477-4.304v-3.026l0.159-1.435v-1.435
	l0.956-4.303l0.478-1.275l0.319-1.434l0.478-1.435l0.318-1.434l0.479-1.436l0.638-1.752l0.797-1.913l0.797-1.434l0.956-1.753
	l1.116-1.593l0.637-1.434l0.797-1.116l0.956-1.115l2.39-2.551l2.392-2.39l1.273-1.115l1.435-1.116l1.594-1.116l1.434-1.115
	l1.595-0.956l1.594-0.797l1.434-0.637l2.072-0.957l3.346-1.115l2.868-0.637l2.072-0.319h3.506l2.072,0.319l2.549,0.478l2.072,0.478
	l1.435,0.478l1.434,0.638l1.275,0.637l0.956,0.637l2.231,1.912l0.955,1.116l0.956,1.594l0.798,1.912l0.478,1.434l0.319,1.434
	l0.158,1.434v1.913l-0.158,2.072l-0.16,1.593l-0.479,1.913l-0.637,1.912l-0.638,1.593l-0.479,0.797l-0.797,1.435L499.075,403.373z
	 M479.633,384.25l-2.23,0.956l-1.912,0.957l-1.275,0.797l-2.23,1.911l-1.435,1.435l-1.274,1.434l-1.116,1.275l-1.115,1.753
	l-1.116,1.594l-0.797,1.434l-0.955,1.753l-0.638,1.912l-0.638,1.435l-0.479,1.274l-0.159,1.116l0.798,0.797l2.07,0.477l3.188,0.16
	l1.594,0.159h4.462l1.593-0.319l1.435-0.317l1.594-0.638l0.956-0.318l1.594-0.797l1.115-0.797l1.116-0.956l1.114-1.115l1.116-0.957
	l0.956-1.274l0.796-1.115l0.639-1.275l0.797-1.434l0.956-2.869l0.318-1.594l0.159-1.434l-0.159-1.593l-0.638-1.435l-0.956-1.115
	l-1.275-0.956l-1.434-0.637l-1.434-0.319l-1.436-0.159l-1.593,0.318L479.633,384.25z"/>
<path stroke="#000000" stroke-miterlimit="10" d="M560.425,403.373l-0.798,1.116l-1.911,2.23l-2.23,1.912l-1.116,0.797l-1.435,0.798
	l-0.956,0.317l-1.593,0.956l-0.957,0.479l-1.435,0.637l-1.594,0.478l-1.435,0.479l-1.435,0.159l-1.595,0.319l-1.752,0.159
	l-1.913,0.318l-1.434,0.16h-1.435l-2.868-0.319l-2.868-0.159l-1.435-0.159l-4.303-0.957h-1.116l-0.796,0.638l-0.318,1.115v1.435
	l-0.16,1.594v2.709l0.16,1.594l0.318,1.275l0.955,2.868l1.594,2.55l0.957,1.115l0.955,0.956l2.551,1.594l1.594,0.478l1.434,0.479
	l1.115,0.16l1.435,0.317l1.435,0.159h1.593l1.436-0.159l4.144-0.797l1.434-0.318l1.436-0.478l1.275-0.479l2.707-1.115l2.552-1.275
	l2.23-1.753l1.115-0.797l1.114-0.956l2.23-2.072l1.913-2.23l0.797-1.115l0.956-1.274l1.594-2.231l0.797-1.275l0.638-1.274
	l0.797-1.274l0.638-1.274l0.797-1.116l0.638-1.274l0.638-1.435l0.639-1.275l0.797-1.274l1.114-0.797h1.435l1.435,0.956l0.797,1.435
	l-0.158,1.434l-0.639,1.435l-0.796,1.754l-0.956,1.752l-0.797,1.753l-0.956,1.753l-0.957,1.594l-1.594,2.55l-0.479,0.956
	l-0.955,1.435l-1.595,2.23l-0.956,1.115l-0.956,0.957l-0.956,1.115l-1.115,1.274l-0.479,0.638l-1.116,1.274l-0.956,1.116
	l-2.23,1.912l-1.593,1.275l-1.435,1.273l-2.551,1.594l-3.983,1.753l-1.274,0.479l-1.435,0.478l-2.071,0.319l-1.912,0.479
	l-3.348,0.318l-2.071,0.159l-1.752,0.16h-1.435l-5.738-0.638l-1.274-0.318l-1.435-0.479l-1.434-0.637l-1.274-0.638l-2.551-1.435
	l-1.274-0.637l-1.115-0.957l-1.116-1.115l-0.637-0.796l-1.115-1.274l-0.956-1.116l-0.797-1.275l-0.637-1.114l-0.639-1.436
	l-0.478-1.274l-0.479-1.435l-0.318-1.434l-0.318-1.274l-0.32-1.435l-0.477-4.304v-3.026l0.159-1.435v-1.435l0.956-4.303l0.478-1.275
	l0.319-1.434l0.478-1.435l0.318-1.434l0.479-1.436l0.638-1.752l0.797-1.913l0.797-1.434l0.956-1.753l1.116-1.593l0.637-1.434
	l0.797-1.116l0.956-1.115l2.39-2.551l2.392-2.39l1.273-1.115l1.435-1.116l1.594-1.116l1.434-1.115l1.595-0.956l1.594-0.797
	l1.434-0.637l2.072-0.957l3.346-1.115l2.868-0.637l2.072-0.319h3.506l2.071,0.319l2.55,0.478l2.071,0.478l1.436,0.478l1.435,0.638
	l1.274,0.637l0.956,0.637l2.23,1.912l0.956,1.116l0.955,1.594l0.798,1.912l0.479,1.434l0.318,1.434l0.159,1.434v1.913l-0.159,2.072
	l-0.159,1.593l-0.479,1.913l-0.637,1.912l-0.639,1.593l-0.479,0.797l-0.797,1.435L560.425,403.373z M540.982,384.25l-2.231,0.956
	l-1.912,0.957l-1.274,0.797l-2.231,1.911l-1.435,1.435l-1.274,1.434l-1.116,1.275l-1.115,1.753l-1.115,1.594l-0.798,1.434
	l-0.955,1.753l-0.638,1.912l-0.638,1.435l-0.479,1.274l-0.159,1.116l0.798,0.797l2.07,0.477l3.188,0.16l1.594,0.159h4.462
	l1.593-0.319l1.435-0.317l1.594-0.638l0.956-0.318l1.594-0.797l1.115-0.797l1.116-0.956l1.114-1.115l1.115-0.957l0.956-1.274
	l0.796-1.115l0.639-1.275l0.798-1.434l0.955-2.869l0.318-1.594l0.159-1.434l-0.159-1.593l-0.638-1.435l-0.956-1.115l-1.274-0.956
	l-1.435-0.637l-1.435-0.319l-1.436-0.159l-1.593,0.318L540.982,384.25z"/>
<polygon stroke="#000000" stroke-miterlimit="10" points="620.818,406.879 620.818,408.632 620.181,410.227 618.269,413.731 
	617.632,415.166 616.994,416.441 615.4,418.991 614.764,420.106 613.967,421.381 612.691,423.771 612.054,424.887 611.098,426.321 
	609.186,428.552 608.389,429.827 607.592,430.942 606.636,432.059 603.607,435.086 601.377,436.839 599.146,438.751 
	597.872,439.707 596.118,440.663 594.206,441.46 592.771,442.097 591.338,442.576 590.062,442.895 588.628,443.053 584.167,443.053 
	582.731,442.895 581.298,442.576 579.385,441.938 577.633,441.142 576.357,440.345 574.127,438.433 573.33,437.317 572.533,436.042 
	571.258,433.492 570.779,432.218 570.302,430.783 569.982,429.35 569.665,428.074 569.665,426.641 569.506,425.205 569.506,423.771 
	569.346,422.178 569.346,420.743 569.824,416.441 569.824,415.006 570.621,407.835 570.939,406.401 571.099,404.967 
	571.736,402.099 572.215,400.027 572.691,398.114 573.012,396.681 573.488,395.246 573.808,393.812 574.286,392.377 
	574.604,390.943 574.923,389.031 575.561,386.96 576.517,384.091 576.517,382.816 576.039,382.019 574.923,381.7 573.648,381.541 
	572.055,381.223 570.461,380.585 569.346,379.151 569.026,377.716 568.868,376.123 569.186,374.848 569.824,373.733 
	570.939,372.936 573.012,372.776 575.401,372.936 577.792,372.936 579.385,372.458 580.021,371.342 580.342,369.748 580.66,368.473 
	581.139,367.039 581.775,365.765 582.413,364.331 582.891,363.056 583.848,360.187 584.484,357.318 584.963,355.884 
	585.601,354.609 586.557,351.741 587.035,350.466 587.673,349.032 588.149,347.598 588.628,346.323 589.106,344.889 
	589.744,343.613 590.381,342.179 590.7,340.905 591.178,339.471 591.814,338.036 592.611,336.92 593.887,336.124 595.32,335.805 
	596.915,335.965 598.827,336.283 600.898,336.761 602.334,337.558 603.607,338.674 604.086,340.427 603.768,341.861 
	602.971,343.933 602.014,346.164 601.218,348.235 600.74,349.829 600.421,350.785 599.942,352.378 598.189,357.637 597.712,358.912 
	597.233,360.346 596.596,362.418 595.64,364.808 594.524,368.155 594.206,369.589 593.568,370.864 593.09,372.139 593.09,373.255 
	594.046,374.051 595.8,374.37 597.393,374.37 600.104,374.21 602.334,374.051 607.273,374.051 609.345,374.21 610.461,375.167 
	610.778,376.92 610.778,378.992 610.302,380.426 609.505,381.541 608.389,382.338 606.955,382.816 605.52,383.135 603.927,383.294 
	599.624,383.454 597.872,383.454 596.438,383.294 590.541,383.294 589.584,383.932 589.106,385.206 588.469,387.119 
	587.832,389.668 587.193,392.377 586.396,394.928 585.76,397.636 585.122,400.187 584.645,402.417 584.484,403.373 584.007,405.604 
	583.528,407.358 583.051,408.951 582.413,411.82 582.254,413.731 581.936,415.803 581.616,418.672 581.616,423.134 581.936,425.205 
	582.254,427.118 582.731,428.552 583.37,429.986 584.167,431.103 585.919,432.218 588.149,433.173 589.903,433.492 591.497,433.492 
	593.25,433.173 597.075,431.261 601.537,427.437 602.651,426.321 603.449,425.365 605.042,423.293 607.113,420.743 607.911,419.628 
	608.548,418.354 609.345,417.078 610.302,415.803 611.098,414.688 611.895,413.413 612.533,412.138 613.01,410.704 613.807,409.11 
	614.604,407.835 615.56,406.242 617.472,404.967 619.544,405.286 "/>
<polygon stroke="#000000" stroke-miterlimit="10" points="693.645,411.5 693.326,412.298 692.529,413.891 691.732,415.007 
	691.094,416.282 690.457,417.716 689.82,418.991 688.227,421.54 687.43,422.656 686.632,423.931 685.995,425.205 685.198,426.48 
	684.242,427.596 683.286,428.871 682.33,429.986 680.577,432.218 679.621,433.333 678.664,434.288 674.202,438.114 672.928,438.91 
	671.494,439.707 669.74,440.504 667.828,441.302 666.395,441.778 664.96,442.097 663.366,442.097 661.454,441.938 659.541,441.46 
	658.107,440.981 656.992,440.186 655.876,439.229 654.761,437.636 653.646,435.883 653.167,434.449 652.689,432.536 652.53,430.465 
	652.53,428.871 652.689,426.8 652.849,424.887 652.37,424.568 651.573,425.684 649.98,428.233 648.386,430.465 647.43,431.579 
	646.634,432.695 645.677,433.811 644.88,434.927 643.766,435.883 642.809,436.838 641.693,437.794 640.578,438.592 639.303,439.39 
	637.55,440.504 635.16,441.619 632.61,442.416 630.538,442.895 627.67,443.212 626.076,443.054 624.164,442.735 622.251,442.257 
	620.817,441.778 619.542,441.302 618.427,440.504 616.196,438.592 615.399,437.477 614.604,436.201 613.646,434.449 612.69,432.058 
	612.212,429.986 612.052,428.393 611.734,426.32 611.575,423.771 611.575,421.7 611.734,420.106 611.894,418.035 612.212,416.121 
	612.69,414.528 613.168,412.616 613.646,410.544 614.124,409.11 614.762,407.835 615.24,406.401 619.065,398.751 619.861,397.478 
	620.658,396.361 621.455,395.086 623.048,392.855 624.005,391.741 626.076,389.349 626.713,388.712 627.829,387.437 
	630.061,385.524 631.494,384.091 633.247,382.816 635.479,381.062 636.753,380.266 637.869,379.47 639.303,378.831 641.215,378.035 
	642.968,377.079 644.562,376.283 646.475,375.645 648.386,375.166 649.98,374.688 653.964,374.37 655.398,374.21 657.311,374.21 
	660.498,374.37 664.163,374.688 667.668,375.326 669.104,375.645 670.856,376.122 677.23,378.992 678.346,379.948 679.461,380.744 
	680.577,381.701 681.533,382.816 681.854,384.569 681.214,386.8 679.461,388.712 677.708,389.827 676.434,389.987 675.159,389.51 
	673.884,388.553 672.45,387.755 671.174,386.959 670.06,386.481 668.784,385.845 667.351,385.206 666.075,384.888 663.366,384.25 
	661.771,383.772 660.18,383.453 656.992,383.453 655.876,383.614 654.283,383.772 652.211,384.25 648.229,385.684 646.634,386.481 
	645.04,387.437 643.924,388.234 642.649,389.031 641.534,389.827 640.418,390.785 639.144,391.899 638.506,392.537 637.392,393.812 
	636.436,394.928 635.639,396.043 633.726,398.274 632.93,399.39 632.132,400.664 630.219,404.489 629.423,405.765 628.467,408.633 
	627.829,410.066 627.192,411.342 626.236,415.645 625.757,417.238 625.279,421.54 625.279,426.002 625.439,427.596 625.917,429.031 
	626.555,430.306 627.352,431.579 628.308,432.536 629.741,433.174 631.654,433.493 633.726,433.333 635.16,432.854 637.709,431.579 
	639.94,429.667 640.896,428.711 642.012,427.755 642.968,426.641 643.766,425.524 644.721,424.409 645.519,423.293 647.271,420.903 
	648.068,419.787 650.458,415.962 651.414,414.209 652.53,412.14 653.167,411.181 655.079,407.038 655.717,405.604 656.035,404.489 
	656.673,403.056 657.151,401.78 657.629,400.346 658.267,398.593 659.224,395.406 659.861,393.652 660.338,392.058 661.295,390.624 
	662.889,389.827 664.322,389.51 665.757,389.668 667.191,389.987 669.74,391.262 671.016,392.058 671.653,393.015 671.812,394.45 
	671.334,395.724 671.016,397.159 670.537,398.593 669.9,401.46 669.422,402.896 669.104,404.17 668.146,407.038 667.828,408.633 
	667.668,409.588 667.191,411.5 666.872,412.936 666.234,415.645 665.757,417.556 665.438,419.149 665.119,420.903 664.642,423.293 
	664.163,426.002 664.003,428.393 664.163,430.465 664.96,431.74 666.553,432.536 668.944,432.695 670.856,432.058 672.29,431.262 
	674.521,429.667 675.636,428.552 677.549,426.48 679.461,424.249 681.055,422.019 681.854,420.743 682.809,419.469 683.127,418.513 
	685.676,414.688 686.314,413.412 687.111,412.14 690.297,405.765 691.732,404.968 693.645,405.285 694.919,406.879 695.079,408.474 
	694.441,409.908 "/>
<path stroke="#000000" stroke-miterlimit="10" d="M726.79,407.198v1.753l-0.479,1.434l-1.273,2.552l-1.436,2.39l-0.797,1.434
	l-0.637,1.275l-0.957,1.434l-0.478,0.956l-0.798,1.435l-0.797,1.275l-0.797,1.115l-0.957,1.275l-0.796,1.114l-1.594,2.551
	l-2.868,3.347l-1.913,2.071l-1.115,1.115l-0.956,1.115l-1.114,0.956l-3.506,2.709l-1.115,0.797l-1.436,0.639l-1.434,0.478
	l-1.275,0.319l-2.869,0.637h-2.709l-1.753-0.16l-1.273-0.477l-1.436-0.479l-1.273-0.796l-1.115-0.957l-0.797-1.115l-0.797-1.274
	l-0.639-1.436l-0.317-1.273l-0.319-1.435l-0.159-1.434v-1.435l0.318-2.868l0.32-1.435l0.477-1.434l0.638-2.869l0.479-1.275
	l0.317-1.434l0.479-1.435l0.479-1.275l1.435-4.302l0.159-1.275l0.318-1.434l0.479-1.435l0.317-1.435l0.319-1.275l0.956-2.867
	l0.479-1.912l0.478-2.072l0.956-2.868l0.319-1.434l0.317-1.116l0.318-1.435l0.638-1.593l0.479-1.275l0.956-4.302l0.478-1.434
	l0.479-1.913l0.637-2.072l0.479-1.434l0.638-1.275l0.956-0.797l1.434-0.637l1.275-0.16l1.594,0.16l2.868,0.319l2.55,0.956
	l0.796,1.116v1.434l-0.317,1.434l-0.479,1.912l-0.479,2.072l-0.957,2.868l-0.317,1.275l-0.319,1.435l-0.478,1.593l-0.479,1.912
	l-1.593,4.78l-0.318,1.435l-0.639,2.072l-1.114,3.346l-0.318,1.434l-0.319,1.275l-0.317,1.435l-1.115,2.709l-0.318,1.435
	l-1.115,3.983l-0.956,2.868l-0.318,1.436l-0.479,2.07l-0.478,2.551l-0.318,2.709l0.318,2.391l1.274,1.753l1.752,0.479l1.436-0.16
	l1.434-0.638l1.116-0.797l1.275-0.956l5.259-5.259l0.956-1.116l0.796-1.114l0.956-1.275l1.594-2.549l0.956-1.116l0.639-0.956
	l0.797-1.275l0.955-1.434l0.639-1.435l1.273-2.709l1.912-3.824l0.797-1.275l1.436-0.797l2.071,0.319L726.79,407.198z
	 M701.133,358.274l0.797-1.275l1.275-1.115l1.275-0.797l1.593-0.478l1.435-0.319h1.594l1.435,0.319l1.274,0.797l1.115,0.956
	l1.115,1.116l0.797,1.275l0.479,1.434l0.159,1.434v1.594l-0.479,1.434l-0.796,1.274l-0.957,1.275l-1.115,0.956l-1.274,0.957
	l-1.436,0.637l-1.593,0.319l-1.436-0.159l-1.594-0.319l-2.55-1.594l-0.956-1.115l-0.796-1.275l-0.319-1.434l-0.16-1.435l0.16-1.434
	l0.319-1.593L701.133,358.274z"/>
<path stroke="#000000" stroke-miterlimit="10" d="M768.542,364.968l-0.796,1.434l-1.275,2.55l-0.797,1.753l-1.115,1.753
	l-0.797,1.116l-0.797,1.274l-0.797,1.116l-0.797,1.434l-0.638,0.956l-0.798,1.275l-1.113,1.434l-1.436,1.594l-1.435,1.434
	l-0.638,0.797l-1.115,1.275l-2.071,2.072l-0.957,1.115l-1.752,1.912l-1.116,0.956l-1.274,1.275l-1.753,1.275l-2.391,2.071
	l-1.274,0.797l-3.507,2.231l-1.113,0.477l-1.275,0.797l-1.753,1.435l-1.116,1.435l-0.637,1.275l-0.319,1.753l-0.478,2.868v0.957
	l-0.319,1.593l-0.319,1.434l-0.157,1.595v3.347l-0.159,2.071v3.187l0.316,1.753l0.16,0.956l0.319,1.594l0.637,1.435l0.639,1.274
	l0.956,1.116l1.274,0.796l1.275,0.479l1.593,0.317h2.709l1.274-0.158l1.435-0.479l1.913-0.796l1.752-0.956l1.274-0.956l1.595-1.274
	l1.434-1.435l1.913-1.754l1.274-1.115l0.957-1.274l0.637-0.797l0.956-1.275l0.638-1.115l0.955-1.434l0.638-0.797l0.956-1.435
	l1.275-2.391l0.797-1.274l0.956-1.435l0.797-1.435l0.797-1.593l1.436-2.071l1.594-1.275l2.071,0.318l1.273,1.594v1.594l-0.478,1.434
	l-0.639,1.275l-0.797,1.274l-0.638,1.435l-0.637,1.275l-0.479,1.274l-0.797,1.275l-0.638,1.115l-0.797,1.274l-0.955,1.435
	l-0.319,0.797l-0.797,1.434l-0.956,1.275l-1.594,2.23l-1.115,1.435l-0.637,0.638l-1.116,1.434l-0.956,1.116l-1.275,1.593
	l-1.434,1.275l-1.116,1.115l-0.956,0.797l-1.115,0.957l-1.435,0.796l-1.275,0.638l-1.434,0.638l-1.275,0.638L744,441.141
	l-1.436,0.639l-1.912,0.638l-3.187,0.637l-1.913,0.159l-1.752-0.159h-0.957l-1.593-0.159l-1.437-0.318l-1.273-0.479l-1.436-0.478
	l-1.272-0.639l-1.275-0.796l-1.116-0.957l-0.955-0.956l-0.956-1.114l-0.639-1.275l-0.637-1.434l-0.479-1.276l-0.317-1.434
	l-0.479-1.435l-0.159-1.434l-0.317-1.594v-0.956l-0.319-1.753l-0.159-1.435v-1.434l0.159-1.435l0.159-1.594v-0.956l0.16-2.072
	l0.478-3.506l0.159-1.912v-1.434l0.319-1.434l0.317-1.595l1.115-5.259l0.479-1.912l0.477-2.869l0.32-0.796l0.477-1.913l0.319-0.956
	l0.638-2.39l0.479-2.072l0.318-1.434l0.479-1.913l0.637-2.231l0.16-1.115l0.637-2.231l0.639-2.072l0.479-1.116l0.638-2.071
	l0.639-1.912l0.637-1.434l1.594-4.144l0.319-0.956l0.956-2.231l1.114-2.55l0.798-1.912l0.638-1.434l0.478-0.957l0.799-1.434
	l1.113-2.708l0.796-1.594l0.798-1.434l0.957-1.434l1.273-2.072l2.072-2.869l0.956-1.275l2.07-2.072l0.639-0.796l1.116-1.115
	l1.113-0.797l2.551-1.754l1.754-1.115l1.753-0.797l1.435-0.479l1.436-0.319h2.866l1.596,0.319l0.956,0.159l1.593,0.479l1.273,0.637
	l2.231,1.912l0.797,1.275l1.116,1.594l0.797,1.912l0.637,1.435l0.639,1.911l0.317,2.072v2.869l-0.317,4.302l-0.639,2.869
	l-0.478,1.275l-0.319,1.593l-1.273,3.825l-0.639,1.275L768.542,364.968z M742.089,369.43l-2.23,6.693l-0.318,1.434l-0.479,1.435
	l-0.637,2.071l-1.116,3.347l-0.478,1.594l-0.159,0.956l-0.479,1.593l-0.478,1.434l-0.319,1.594l0.319,0.956l0.956-0.637l1.594-1.275
	l6.533-6.534l0.797-1.115l0.797-1.275l0.956-1.434l0.638-0.638l0.955-1.434l1.116-1.434l1.115-1.594l1.116-1.753l0.797-1.274
	l0.637-1.116l0.797-1.115l1.275-2.551l0.638-1.593l0.479-0.956l0.638-1.594l0.637-1.434l0.319-1.434l0.479-1.434l0.479-1.754
	l0.638-1.752l0.479-1.754l0.638-1.752l0.159-1.594l0.16-1.434v-3.028l-0.319-1.275l-0.479-1.275l-1.114-0.797l-1.276-0.318
	l-1.434,0.318l-1.436,1.116l-1.114,0.956l-0.797,0.956l-0.798,1.116l-0.797,1.275l-1.594,2.39l-0.796,1.435l-0.639,1.434
	l-0.638,1.274l-0.637,1.434l-0.639,1.275l-0.638,1.435l-0.479,1.275l-0.638,1.752l-0.956,2.391l-0.638,1.434L742.089,369.43z"/>
<polygon stroke="#000000" stroke-miterlimit="10" points="386.232,516.538 386.232,495.858 359.875,495.858 359.875,516.538 
	354.266,516.538 354.266,471.46 359.875,471.46 359.875,490.856 386.232,490.856 386.232,471.46 391.841,471.46 391.841,516.538 "/>
<path stroke="#000000" stroke-miterlimit="10" d="M448.069,516.539l-3.987-10.003h-22.438l-3.986,10.003h-6.42l18.111-45.078h6.96
	l18.181,45.078H448.069z M432.864,477.273l-9.598,24.262h19.126L432.864,477.273z"/>
<g>
	<g>
		<defs>
			<rect id="SVGID_1_" x="-4.783" y="-5" width="1080" height="1080"/>
		</defs>
		<clipPath id="SVGID_2_">
			<use xlink:href="#SVGID_1_"  overflow="visible"/>
		</clipPath>
		<path clip-path="url(#SVGID_2_)" stroke="#000000" stroke-miterlimit="10" d="M464.779,491.916
			c0-13.854,10.204-23.315,23.18-23.315c7.975,0,13.517,3.852,17.099,8.921l-4.73,2.636c-2.568-3.785-7.231-6.556-12.368-6.556
			c-9.867,0-17.368,7.569-17.368,18.314c0,10.678,7.501,18.315,17.368,18.315c5.137,0,9.8-2.703,12.368-6.557l4.799,2.637
			c-3.785,5.136-9.192,8.921-17.167,8.921C474.983,515.232,464.779,505.77,464.779,491.916"/>
	</g>
	<g>
		<defs>
			<rect id="SVGID_3_" x="-4.783" y="-5" width="1080" height="1080"/>
		</defs>
		<clipPath id="SVGID_4_">
			<use xlink:href="#SVGID_3_"  overflow="visible"/>
		</clipPath>
		<polygon clip-path="url(#SVGID_4_)" stroke="#000000" stroke-miterlimit="10" points="553.041,514.42 535.943,494.147 
			531.415,499.283 531.415,514.42 525.805,514.42 525.805,469.342 531.415,469.342 531.415,492.659 551.352,469.342 558.38,469.342 
			539.592,490.767 560.002,514.42 		"/>
	</g>
	<g>
		<defs>
			<rect id="SVGID_5_" x="-4.783" y="-5" width="1080" height="1080"/>
		</defs>
		<clipPath id="SVGID_6_">
			<use xlink:href="#SVGID_5_"  overflow="visible"/>
		</clipPath>
		<polygon clip-path="url(#SVGID_6_)" stroke="#000000" stroke-miterlimit="10" points="579.939,514.42 579.939,469.342 
			609.472,469.342 609.472,474.343 585.548,474.343 585.548,488.875 608.999,488.875 608.999,493.875 585.548,493.875 
			585.548,509.419 609.472,509.419 609.472,514.42 		"/>
	</g>
	<g>
		<defs>
			<rect id="SVGID_7_" x="-4.783" y="-5" width="1080" height="1080"/>
		</defs>
		<clipPath id="SVGID_8_">
			<use xlink:href="#SVGID_7_"  overflow="visible"/>
		</clipPath>
		<path clip-path="url(#SVGID_8_)" stroke="#000000" stroke-miterlimit="10" d="M657.996,514.42l-11.489-17.909h-8.987v17.909
			h-5.608v-45.077h18.111c8.245,0,14.124,5.272,14.124,13.584c0,8.11-5.542,12.57-11.691,13.111l12.165,18.382H657.996z
			 M658.334,482.927c0-5.068-3.649-8.583-8.988-8.583H637.52v17.234h11.826C654.685,491.579,658.334,487.997,658.334,482.927"/>
	</g>
	<g>
		<defs>
			<rect id="SVGID_9_" x="-4.783" y="-5" width="1080" height="1080"/>
		</defs>
		<clipPath id="SVGID_10_">
			<use xlink:href="#SVGID_9_"  overflow="visible"/>
		</clipPath>
		<path clip-path="url(#SVGID_10_)" stroke="#000000" stroke-miterlimit="10" d="M683.812,508.068l3.312-4.258
			c2.974,3.312,7.84,6.421,14.19,6.421c8.042,0,10.611-4.325,10.611-7.772c0-5.407-5.476-6.894-11.421-8.515
			c-7.232-1.894-15.275-3.92-15.275-12.773c0-7.435,6.624-12.503,15.479-12.503c6.893,0,12.23,2.297,16.017,6.284l-3.379,4.123
			c-3.38-3.717-8.11-5.406-13.043-5.406c-5.407,0-9.259,2.905-9.259,7.163c0,4.528,5.204,5.88,10.948,7.434
			c7.364,1.962,15.745,4.259,15.745,13.721c0,6.555-4.46,13.246-16.626,13.246C693.273,515.232,687.529,512.257,683.812,508.068"/>
	</g>
</g>
</svg>
