<?xml version="1.0" encoding="utf-8"?>
<!-- Generator: Adobe Illustrator 16.0.0, SVG Export Plug-In . SVG Version: 6.00 Build 0)  -->
<!DOCTYPE svg PUBLIC "-//W3C//DTD SVG 1.1//EN" "http://www.w3.org/Graphics/SVG/1.1/DTD/svg11.dtd">
<svg version="1.1" id="Layer_1" xmlns="http://www.w3.org/2000/svg" xmlns:xlink="http://www.w3.org/1999/xlink" x="0px" y="0px"
	 width="635.98px" height="792px" viewBox="0 0 635.98 792" enable-background="new 0 0 635.98 792" xml:space="preserve">
<path id="US-TX" fill="#D3D3D3" d="M400.891,624.699c-8.744-4.979-11.785-5.765-19.043-4.933c-6.816,0.784-10.74-0.055-18.63-3.981
	c-5.495-2.738-13.313-5.688-17.373-6.555c-4.059-0.864-8.554-2.818-9.989-4.34c-1.434-1.519-3.858-3.756-5.391-4.975
	c-2.617-2.074-7.777-15.327-6.272-16.099c0.381-0.197-1.672-2.091-4.559-4.211c-4.614-3.385-5.604-5.653-8.123-18.591
	c-2.541-13.072-3.857-16.042-11.658-26.323c-13.962-18.4-29.003-42.06-31.147-48.996c-2.884-9.33-13.877-25.218-20.824-30.098
	c-3.321-2.331-7.892-7.024-10.157-10.432c-3.329-5.002-5.427-6.266-10.92-6.573c-3.74-0.207-11.305-0.838-16.814-1.399
	c-15.132-1.547-26.128,2.655-29.546,11.293c-1.43,3.612-2.491,7.523-2.356,8.691c0.134,1.167-2.121,5.286-5.011,9.154
	c-4.09,5.473-6.59,7.154-11.276,7.595c-8.5,0.796-10.508-0.032-25.297-10.467c-19.827-13.987-30.395-25.555-32.078-35.113
	c-0.759-4.313-3.277-11.5-5.596-15.974c-2.321-4.472-4.49-10.496-4.822-13.388c-0.611-5.321-6.085-11.14-23.642-25.137
	c-4.393-3.503-9.734-9.172-11.869-12.597c-2.136-3.427-5.457-6.853-7.38-7.614c-1.922-0.762-4.698-3.873-6.166-6.914
	c-1.469-3.042-4.905-7.383-7.635-9.647c-3.242-2.69-4.906-5.637-4.799-8.499c0.151-4.084,0.907-4.471,11.113-5.698
	c6.024-0.722,19.292-0.85,29.484-0.285c19.819,1.101,26.366,1.424,37.078,1.835c3.728,0.141,10.056,0.585,14.062,0.98
	c4.006,0.397,11.341,0.793,16.3,0.882c4.96,0.089,9.511,0.383,10.116,0.657c2.725,1.23,23.276,0.151,23.121-1.214
	c-0.095-0.842,0.257-8.465,0.787-16.94c0.528-8.475,1.017-17.848,1.089-20.825c0.071-2.978,1.235-28.221,2.585-56.093
	c1.353-27.875,2.584-53.429,2.739-56.791c0.156-3.361,0.412-7.813,0.57-9.893c0.159-2.08,0.386-6.694,0.507-10.251
	c0.12-3.558,0.367-8.446,0.551-10.863c0.183-2.417,0.461-7.681,0.615-11.698c0.156-4.019,0.398-8.532,0.542-10.033
	c0.143-1.502,0.219-3.605,0.174-4.679c-0.062-1.38,4.404-1.801,15.331-1.446c8.481,0.275,20.447,0.439,26.59,0.363
	c6.145-0.075,12.407,0.03,13.915,0.235c1.508,0.204,7.196,0.359,12.639,0.345c5.443-0.017,14.778,0.167,20.745,0.406
	c5.967,0.237,11.541,0.359,12.383,0.27c0.846-0.09,1.741,6.09,1.994,13.734c0.969,29.402,1.858,73.27,1.547,76.25
	c-0.429,4.093,2.048,5.458,14.246,7.866c6.142,1.212,11.905,3.743,14.644,6.43c4.714,4.632,15.343,6.991,29.774,6.609
	c8.598-0.227,18.357,3.636,22.463,8.888c1.639,2.096,4.521,3.183,7.527,2.837c2.677-0.306,9.45,0.606,15.05,2.031
	c9.335,2.371,13.22,2.193,46.554-2.127c39.866-5.168,38.779-5.259,57.856,4.811c4.562,2.407,11.115,4.818,14.564,5.357l6.271,0.98
	l4.45,38.751l4.453,38.755l6.463,10.783c3.555,5.93,7.979,15.531,9.831,21.338c3.046,9.554,3.105,11.252,0.621,17.902
	c-1.509,4.04-2.717,12.604-2.684,19.032c0.03,6.427-0.932,15.851-2.142,20.944c-1.21,5.092-2.43,11.914-2.708,15.164
	c-0.399,4.605-1.41,6.012-4.592,6.377c-7.011,0.806-15.952,6.925-21.818,14.934c-5.995,8.183-23.033,21.427-43.734,33.986
	c-11.312,6.864-21.105,14.019-23.247,16.993c-0.428,0.589-4.415,4.671-8.859,9.063c-10.168,10.059-14.949,16.742-23.557,32.947
	c-6.623,12.461-6.791,13.28-5.121,24.884c0.949,6.601,2.745,14.312,3.993,17.14c2.573,5.817,7.509,33.895,6.589,37.466
	C415.024,631.686,412.021,631.036,400.891,624.699z"/>
<circle fill="#257BA0" stroke="#D3D3D3" stroke-width="4" stroke-miterlimit="10" cx="393" cy="419" r="42"/>
<circle fill="#257BA0" stroke="#D3D3D3" stroke-width="4" stroke-miterlimit="10" cx="418.5" cy="363" r="8"/>
<circle fill="#257BA0" stroke="#D3D3D3" stroke-width="4" stroke-miterlimit="10" cx="429" cy="292.5" r="24.5"/>
<circle fill="#257BA0" stroke="#D3D3D3" stroke-width="4" stroke-miterlimit="10" cx="439.25" cy="401.25" r="26.75"/>
<circle fill="#257BA0" stroke="#D3D3D3" stroke-width="4" stroke-miterlimit="10" cx="390.176" cy="611.067" r="26.676"/>
<circle fill="#257BA0" stroke="#D3D3D3" stroke-width="4" stroke-miterlimit="10" cx="401.5" cy="296" r="17"/>
<circle fill="#257BA0" stroke="#D3D3D3" stroke-width="4" stroke-miterlimit="10" cx="396.5" cy="546" r="17"/>
<circle fill="#257BA0" stroke="#D3D3D3" stroke-width="4" stroke-miterlimit="10" cx="484.594" cy="445.546" r="14.547"/>
<circle fill="#257BA0" stroke="#D3D3D3" stroke-width="4" stroke-miterlimit="10" cx="242" cy="255" r="8"/>
<circle fill="#257BA0" stroke="#D3D3D3" stroke-width="4" stroke-miterlimit="10" cx="56" cy="347" r="8"/>
<circle fill="#257BA0" stroke="#D3D3D3" stroke-width="4" stroke-miterlimit="10" cx="363.5" cy="442.547" r="8"/>
<circle fill="#257BA0" stroke="#D3D3D3" stroke-width="4" stroke-miterlimit="10" cx="404.5" cy="270.386" r="8"/>
<circle fill="#257BA0" stroke="#D3D3D3" stroke-width="4" stroke-miterlimit="10" cx="362.99" cy="607.477" r="8"/>
<circle fill="#257BA0" stroke="#D3D3D3" stroke-width="4" stroke-miterlimit="10" cx="379.5" cy="292.5" r="8"/>
<circle fill="#257BA0" stroke="#D3D3D3" stroke-width="4" stroke-miterlimit="10" cx="498.142" cy="448.387" r="8"/>
<circle fill="#257BA0" stroke="#D3D3D3" stroke-width="4" stroke-miterlimit="10" cx="484.594" cy="428" r="8"/>
<circle fill="#257BA0" stroke="#D3D3D3" stroke-width="4" stroke-miterlimit="10" cx="514.142" cy="341" r="8"/>
<g id="qMfob3.tif" display="none" opacity="0.5">
	
		<image display="inline" overflow="visible" width="375" height="365" id="Layer_0_1_" xlink:href="ECD1569ED10FB4E.png"  transform="matrix(1.4629 0 0 1.4629 39.7119 107.7754)">
	</image>
</g>
<g display="none">
	<rect x="172.03" y="391.5" display="inline" fill="none" width="187" height="36"/>
	<text transform="matrix(1 0 0 1 172.0303 400.6191)" display="inline" font-family="'OpenSans'" font-size="12">The University of Texas at Austin</text>
	<rect x="228.009" y="441" display="inline" fill="none" width="134.981" height="14.772"/>
	<text transform="matrix(1 0 0 1 228.0093 450.1201)" display="inline" font-family="'OpenSans'" font-size="12">Texas State University</text>
	<rect x="467.49" y="392.727" display="inline" fill="none" width="134.98" height="14.773"/>
	<text transform="matrix(1 0 0 1 467.4902 401.8477)" display="inline" font-family="'OpenSans'" font-size="12">Texas A&amp;M University</text>
	<rect x="427" y="257" display="inline" fill="none" width="207.98" height="14.772"/>
	<text transform="matrix(1 0 0 1 427 266.1201)" display="inline" font-family="'OpenSans'" font-size="12">The University of Texas at Dallas</text>
	<rect x="135.54" y="625.477" display="inline" fill="none" width="259.98" height="14.772"/>
	<text transform="matrix(1 0 0 1 135.54 634.5967)" display="inline" font-family="'OpenSans'" font-size="12">The University of Texas Rio Grande Valley</text>
	<rect x="214.5" y="312.228" display="inline" fill="none" width="207.98" height="14.772"/>
	<text transform="matrix(1 0 0 1 214.5 321.3477)" display="inline" font-family="'OpenSans'" font-size="12">The University of Texas at Arlington</text>
	<rect x="200.081" y="538.613" display="inline" fill="none" width="191.98" height="14.773"/>
	<text transform="matrix(1 0 0 1 200.0811 547.7334)" display="inline" font-family="'OpenSans'" font-size="12">Texas A&amp;M University Kingsville</text>
	<rect x="508.142" y="438.613" display="inline" fill="none" width="134.98" height="14.773"/>
	<text transform="matrix(1 0 0 1 508.1406 447.7334)" display="inline" font-family="'OpenSans'" font-size="12">Rice University</text>
	<rect x="110.02" y="247.613" display="inline" fill="none" width="134.98" height="14.773"/>
	<text transform="matrix(1 0 0 1 110.019 256.7334)" display="inline" font-family="'OpenSans'" font-size="12">Texas Tech University</text>
	<rect x="20.55" y="327.613" display="inline" fill="none" width="207.98" height="14.773"/>
	<text transform="matrix(1 0 0 1 20.5498 336.7339)" display="inline" font-family="'OpenSans'" font-size="12">The University of Texas at El Paso</text>
	<rect x="252.49" y="263" display="inline" fill="none" width="207.98" height="14.772"/>
	<text transform="matrix(1 0 0 1 252.4902 272.1201)" display="inline" font-family="'OpenSans'" font-size="12">University of North Texas</text>
	<rect x="464.5" y="461" display="inline" fill="none" width="178.98" height="14.773"/>
	<text transform="matrix(1 0 0 1 464.5 470.1201)" display="inline" font-family="'OpenSans'" font-size="12">The University of Houston</text>
	<rect x="493" y="420.16" display="inline" fill="none" width="134.98" height="14.773"/>
	<text transform="matrix(1 0 0 1 493 429.2803)" display="inline" font-family="'OpenSans'" font-size="12">Lone Star College</text>
	<rect x="240.5" y="595.09" display="inline" fill="none" width="119.98" height="14.772"/>
	<text transform="matrix(1 0 0 1 240.5 604.21)" display="inline" font-family="'OpenSans'" font-size="12">South Texas College</text>
	<text transform="matrix(1 0 0 1 201.5 420.1602)" display="inline" font-family="'OpenSans'" font-size="12">Austin Community College</text>
	<rect x="224.5" y="285.228" display="inline" fill="none" width="207.98" height="14.772"/>
	<text transform="matrix(1 0 0 1 224.5 294.3477)" display="inline" font-family="'OpenSans'" font-size="12">Texas Christian University</text>
	<rect x="372.01" y="333.613" display="inline" fill="none" width="207.98" height="14.772"/>
	<text transform="matrix(1 0 0 1 372.0098 342.7334)" display="inline" font-family="'OpenSans'" font-size="12">Stephen F. Austin State</text>
	<rect x="462.471" y="376.5" display="inline" fill="none" width="134.98" height="14.773"/>
	<text transform="matrix(1 0 0 1 462.4707 385.6206)" display="inline" font-family="'OpenSans'" font-size="12">Blinn College</text>
	<rect x="453" y="273.114" display="inline" fill="none" width="207.98" height="14.772"/>
	<text transform="matrix(1 0 0 1 453 282.2339)" display="inline" font-family="'OpenSans'" font-size="12">Southern Methodist University</text>
	<rect x="311.51" y="355.613" display="inline" fill="none" width="207.98" height="14.772"/>
	<text transform="matrix(1 0 0 1 311.5098 364.7329)" display="inline" font-family="'OpenSans'" font-size="12">Baylor University</text>
</g>
</svg>
