<?xml version="1.0" encoding="utf-8"?>
<!-- Generator: Adobe Illustrator 16.0.0, SVG Export Plug-In . SVG Version: 6.00 Build 0)  -->
<!DOCTYPE svg PUBLIC "-//W3C//DTD SVG 1.1//EN" "http://www.w3.org/Graphics/SVG/1.1/DTD/svg11.dtd">
<svg version="1.1" id="svg4468" xmlns:svg="http://www.w3.org/2000/svg"
	 xmlns="http://www.w3.org/2000/svg" xmlns:xlink="http://www.w3.org/1999/xlink" x="0px" y="0px" width="1354.729px"
	 height="1105.704px" viewBox="375.271 624.296 1354.729 1105.704" enable-background="new 375.271 624.296 1354.729 1105.704"
	 xml:space="preserve">
<g transform="translate(-532.4669,4.043817)">
	<g id="Canada">
		<path id="CA-AB" fill="#92B8C4" d="M1250.625,1056.469c-54.496-9.722-48.577-8.042-52.323-14.843l-3.157-5.729l1.263-11.192
			c1.332-11.803,0.966-14.731-2.573-20.543c-1.202-1.974-4.59-7.54-7.527-12.368c-2.939-4.828-6.524-11.533-7.968-14.9
			c-1.444-3.366-4.085-7.986-5.872-10.264c-1.785-2.279-3.674-5.735-4.198-7.683c-0.525-1.947-2.356-4.909-4.069-6.582
			c-1.714-1.672-3.155-3.517-3.202-4.099c-0.048-0.58-1.125-2.288-2.395-3.795c-1.336-1.583-2.94-5.53-3.807-9.363
			c-0.943-4.176-2.494-7.848-4.19-9.929c-1.481-1.816-3.25-4.483-3.929-5.926c-0.681-1.443-2.902-3.52-4.937-4.613
			c-3.646-1.961-5.226-5.51-3.135-7.051c0.52-0.384,0.742-3.189,0.493-6.232c-0.443-5.413,4.558-24.716,39.021-150.605l3.115-11.382
			l22.672,5.533c12.47,3.043,31.398,7.333,42.063,9.532c10.666,2.2,29.459,6.072,41.765,8.605
			c12.305,2.533,22.493,4.707,22.64,4.831c0.712,0.603-1.712,15.529-2.642,16.268c-0.588,0.466-2.127,1.225-3.42,1.684
			c-2.447,0.868-12.064,12.067-11.963,13.929c0.032,0.585,1.723,1.696,3.756,2.469c3.559,1.353,3.8,1.32,6.392-0.865
			c1.481-1.249,2.91-3.214,3.175-4.367c0.264-1.152,0.703-1.906,0.976-1.675c0.272,0.231-0.671,7.905-2.095,17.054
			c-3.362,21.597-6.978,44.986-11.917,77.095c-2.192,14.251-4.698,30.484-5.569,36.074c-4.393,28.187-8.297,53.36-10.4,67.072
			c-11.104,72.385-10.139,66.603-11.097,66.485C1265.191,1059.05,1258.465,1057.867,1250.625,1056.469z"/>
		<g id="CA-BC">
			<path fill="#D3D3D3" d="M1034.568,1021.697c-6.697-3.528-17.304-15.276-17.654-19.554c-0.195-2.378-0.851-3.15-3.261-3.841
				c-3.05-0.875-5.632-4.567-7.445-10.646c-0.482-1.617-2.016-4.427-3.41-6.243c-1.394-1.817-3.483-5.259-4.645-7.646
				c-1.16-2.39-4.179-7.228-6.707-10.756c-2.775-3.871-5.298-8.835-6.366-12.522c-0.973-3.36-2.491-7.53-3.373-9.268
				c-1.535-3.024-1.485-3.273,1.168-5.829c1.525-1.469,3.633-2.757,4.685-2.862c1.969-0.198,8.375,5.026,18.898,15.409
				c3.302,3.259,6.498,6.374,7.103,6.923c0.604,0.55,2.816,2.89,4.915,5.201c2.099,2.312,4.092,4.406,4.431,4.654
				c1.493,1.093,4.744,9.684,5.854,15.463c1.061,5.53,1.886,7.065,6.672,12.419c6.372,7.125,6.951,8.205,8.546,15.917
				c0.658,3.186,1.936,7.442,2.838,9.459s1.398,3.953,1.101,4.303C1046.543,1023.899,1038.043,1023.526,1034.568,1021.697z"/>
			<path fill="#D3D3D3" d="M1195.615,1046.336c-0.931-0.191-21.983-4.891-38.326-8.558c-5.637-1.265-65.66-18.331-90.398-25.703
				c-4.242-1.265-9.099-2.682-10.792-3.147c-3.922-1.082-4.647-2.037-5.043-6.641c-0.222-2.578-1.02-4.233-2.558-5.31
				c-6.187-4.326-8.463-6.562-8.619-8.466c-0.094-1.151-0.559-2.061-1.032-2.021c-2.417,0.198-6.336-4.816-7.323-9.372
				c-1.601-7.378-5.456-13.596-11.827-19.072c-5.703-4.901-5.765-5.01-5.574-9.828c0.156-3.946-0.095-4.847-1.322-4.746
				c-0.833,0.068-1.693-0.218-1.912-0.634c-0.217-0.416-2.628-1.818-5.355-3.115c-2.728-1.297-5.038-2.897-5.134-3.556
				c-0.097-0.659-0.435-2.08-0.751-3.158c-0.776-2.643-0.974-4.41-1.695-15.118c-0.603-8.939-0.543-9.264,2.2-11.983
				c2.595-2.573,2.713-3.039,1.475-5.832c-0.74-1.67-1.49-4.805-1.667-6.965c-0.244-2.978-1.41-5.237-4.819-9.341
				c-3.768-4.534-4.45-5.967-4.208-8.844c0.159-1.889,1.144-4.282,2.19-5.317c2.111-2.09,1.771-3.638-2.225-10.13
				c-2.012-3.27-2.5-5.687-3.377-16.735c-0.993-12.49-0.95-13.003,1.305-15.659c1.283-1.51,4.64-3.837,7.462-5.172
				c6.944-3.285,12.17-8.862,11.859-12.658c-0.326-3.979,1.445-8.837,4.818-13.219c2.523-3.276,2.775-4.334,2.327-9.807
				c-0.455-5.552-0.805-6.362-3.693-8.54c-3.664-2.764-10.547-13.55-12.724-19.939c-1.281-3.761-1.243-5.889,0.284-15.782
				c1.558-10.099,1.583-12.083,0.222-16.979c-0.849-3.049-2.145-9.784-2.881-14.966c-0.737-5.183-1.614-10.349-1.951-11.482
				c-0.337-1.132-1.011-3.785-1.496-5.897c-0.486-2.111-2.675-9.335-4.866-16.054c-2.19-6.718-4.287-13.204-4.659-14.412
				c-0.424-1.372-2.097-2.657-4.464-3.426c-7.228-2.348-8.141-2.239-9.797,1.174c-1.112,2.292-3.122,3.874-7.403,5.828
				c-3.232,1.475-7.575,3.667-9.648,4.873c-2.075,1.207-3.876,2.202-4.003,2.212c-0.126,0.011,0.045-1.471,0.381-3.292
				c0.942-5.093-0.925-17.026-3.1-19.819c-2.305-2.96-2.788-12.235-0.621-11.941c0.741,0.1,11.329,5.605,23.528,12.235
				c33.257,18.072,69.475,36.235,86.973,43.617c8.574,3.617,16.063,6.855,16.643,7.197c2.868,1.691,34.885,14.742,46.709,19.041
				c7.394,2.688,23.39,7.812,35.547,11.385c12.157,3.574,22.487,6.779,22.956,7.12c0.468,0.342,0.485,1.736,0.037,3.098
				c-0.447,1.363-4.488,16.097-8.979,32.744c-4.49,16.646-9.509,35.118-11.151,41.046c-17.928,64.725-21.6,79.341-21.189,84.348
				c0.245,2.998-0.131,6.15-0.889,7.445c-1.905,3.259-0.325,7.466,3.589,9.553c4.891,2.607,11.831,13.289,13.119,20.199
				c0.707,3.781,2.124,7.085,4.253,9.901c1.755,2.325,3.229,4.676,3.274,5.224s1.23,2.056,2.635,3.351
				c1.404,1.296,3.305,4.45,4.223,7.009c0.918,2.561,2.085,4.868,2.593,5.127c1.329,0.679,6.18,8.898,7.29,12.35
				c0.518,1.612,4.667,9.141,9.22,16.729c4.787,7.976,8.389,15.086,8.541,16.859c0.145,1.685-0.177,7.332-0.713,12.55
				c-1.006,9.777-0.405,13.907,2.581,17.741C1197.402,1045.889,1197.387,1046.699,1195.615,1046.336z"/>
			<path fill="#D3D3D3" d="M951.725,876.965c-4.814-9.039-7.218-20.062-7.865-36.071c-0.375-9.318-0.18-14.931,0.558-15.985
				c0.626-0.893,1.085-2.349,1.021-3.234c-0.188-2.597,4.128-2.843,8.335-0.474c5.035,2.835,11.915,8.638,12.039,10.156
				c0.054,0.657-3.594,5.729-8.107,11.273c-9.587,11.777-9.68,12.356-4.329,26.949c1.767,4.818,3.283,9.545,3.368,10.504
				C957.054,883.564,954.342,881.879,951.725,876.965z"/>
		</g>
		<path id="CA-MB" fill="#D3D3D3" d="M1422.311,779.362l-0.202,6.35c-0.112,3.501-0.277,7.065-0.356,7.899
			c-0.078,0.834-0.27,4.01-0.426,7.058c-0.156,3.047-0.344,6.224-0.426,7.058c-0.082,0.835-0.446,7.368-0.818,14.521
			c-0.636,12.266-0.567,13.178,1.26,15.762c1.896,2.683,1.885,2.801-0.596,6.508c-1.395,2.083-2.981,4.577-3.531,5.525
			c-0.549,0.948-0.85,7.569-0.644,14.727c0.205,7.156,0.383,14.817,0.391,17.025c0.007,2.206,0.046,8.072,0.095,13.035
			c0.048,4.963,0.136,11.729,0.164,15.036c0.115,13.764,0.137,19.468,0.21,27.073c0.041,4.412,0.072,10.279,0.063,13.039
			c-0.01,2.76,0.084,9.524,0.195,15.034c0.11,5.509,0.187,11.824,0.176,14.032c-0.009,2.208,0.083,8.747,0.187,14.533
			c0.104,5.785,0.167,12.103,0.146,14.035c-0.021,1.933,0.061,8.698,0.195,15.034c0.134,6.335,0.182,12.2,0.095,13.035
			c-0.287,2.762,0.194,25.453,0.68,32.052l0.468,6.483l6.029,0.103c9.668,0.188,18.903,0.471,21.624,0.645
			c1.387,0.088,5.01,0.226,8.052,0.312c5.866,0.168,9.202,0.285,18.11,0.618c3.046,0.114,9.821,0.155,15.058,0.085
			c5.237-0.071,14.092-0.379,19.668-0.67l10.116-0.514l0.23-4.848c0.113-2.667-0.007-10.247-0.25-16.849
			c-0.243-6.603-0.5-15.16-0.584-19.016c-0.087-3.856-0.446-13.76-0.799-22.008c-1.221-28.57-1.146-31.552,0.901-35.724
			c1.048-2.137,7.45-10.835,14.253-19.321c6.803-8.487,14.17-17.819,16.362-20.747c2.19-2.93,4.391-5.883,4.889-6.546
			c8.707-11.598,12.885-17.271,17.547-23.887c3.085-4.377,8.429-11.643,11.879-16.147c3.449-4.505,7.667-10.06,9.368-12.337
			c1.701-2.276,5.15-6.793,7.676-10.034c2.526-3.242,4.58-6.38,4.542-6.956c-0.075-1.118-5.482-2.848-10.047-3.222
			c-6.986-0.575-8.938-1.074-10.216-2.613c-1.077-1.298-2.691-1.524-7.421-1.023c-3.312,0.351-6.284,1.163-6.625,1.796
			c-0.703,1.303-12.114,3.677-14.429,3c-1.053-0.308-1.319-1.1-0.902-2.591c0.607-2.172,0.334-3.386-3.577-16.513
			c-2.81-9.427-3.562-12.242-4.707-17.675c-1.313-6.227-4.021-7.943-14.618-9.276c-6.786-0.854-9.116-1.573-10.133-3.122
			c-1.432-2.181-2.051-10.062-1.641-20.811l0.26-6.794l-5.336,0.312c-2.924,0.17-5.649,0.248-6.068,0.183
			c-0.419-0.064-4.154-0.188-8.302-0.292s-8.222-0.251-9.056-0.325c-0.835-0.074-4.66-0.217-8.491-0.309
			c-3.832-0.091-7.907-0.239-9.057-0.325c-1.15-0.086-4.796-0.209-8.112-0.277c-3.316-0.068-9.649-0.22-14.075-0.353
			c-4.427-0.133-10.759-0.278-14.074-0.322c-3.314-0.045-8.145-0.179-10.715-0.283L1422.311,779.362z M1464.83,948.332
			c3.847-0.281,6.568,1.31,8.808,4.954c1.333,2.171,2.767,4.138,3.181,4.38c1.973,1.151,7.525,12.892,6.786,14.339
			c-0.468,0.915,1.772,6.265,4.017,9.61c0.784,1.17,1.511,4.497,1.64,7.391c0.245,5.556,4.54,17.495,8.123,22.632
			c1.441,2.067,2.307,5.523,3.077,12.321c1.057,9.312,1.02,9.453-1.314,9.984c-1.303,0.295-3.113,1.685-4.042,3.089
			c-1.934,2.92-3.724,3.361-5.964,1.461c-1.844-1.564-1.905-8.738-0.109-12.062c0.634-1.175,1.289-3.432,1.439-5.01
			c0.151-1.577,0.771-3.587,1.39-4.472c1.794-2.561,1.524-4.918-0.684-6.059c-1.725-0.89-2.2-0.731-3.112,1.039
			c-1.182,2.289-3.549,2.999-3.703,1.118c-0.053-0.646,0.313-2.642,0.798-4.424c2.077-7.643-2.818-13.691-8.896-10.997
			c-2.479,1.098-3.219,0.997-5.044-0.717c-1.171-1.099-2.979-4.046-4.049-6.566s-3.177-5.961-4.671-7.645
			c-1.92-2.165-2.676-3.955-2.537-6.095c0.18-2.759-0.235-3.222-4.876-5.182c-6.761-2.856-9.309-1.658-9.029,4.22
			c0.107,2.251,0.228,6.346,0.274,9.101c0.233,13.769,0.232,13.786,4.564,16.685c9.304,6.222,10.075,7.055,11.98,13.065
			c1.021,3.228,1.969,7.485,2.121,9.452c0.153,1.966,1.642,5.782,3.297,8.479c3.869,6.301,4.423,11.398,1.367,12.492
			c-3.217,1.15-4.479,1.143-5.366-0.062c-0.771-1.047-4.558-13.52-7.376-24.23c-1.595-6.054-3.202-7.844-10.527-11.773
			c-5.813-3.12-8.717-5.695-8.587-7.606c0.047-0.693,0.07-2.14,0.052-3.202s0.537-2.581,1.228-3.393
			c0.816-0.963,1.031-3.79,0.655-8.081c-0.577-6.585-0.552-6.574-4.545-8.407c-4.461-2.047-6.205-4.176-6.515-7.963
			c-0.169-2.055,0.278-2.595,2.252-2.756c3.693-0.303,4.682-3.581,1.977-6.495c-1.198-1.29-2.208-2.841-2.259-3.453
			c-0.107-1.311,4.404-3.742,7.117-3.843c2.4-0.089,7.978,4.388,8.154,6.544c0.073,0.898,1.256,2.528,2.616,3.611l2.449,1.963
			l1.043-3.723c1.723-6.337,5.347-11.778,8.547-12.803C1462.138,948.745,1463.547,948.427,1464.83,948.332z"/>
		<path id="CA-NB" fill="#D3D3D3" d="M2025.33,1081.61c-2.314-0.393-5.299-3.264-7.245-6.971c-0.768-1.462-2.413-2.826-3.657-3.033
			c-4.125-0.683-11.875-16.795-12.73-26.466c-0.293-3.32-1.018-4.981-2.793-6.406c-4.179-3.354-9.616-5.613-12.873-5.351
			l-3.151,0.254l-0.899-6.197c-0.493-3.409-0.764-6.548-0.6-6.975s3.072-1.037,6.461-1.357c7.32-0.69,11.282-2.375,15.13-6.431
			c1.745-1.839,5.632-4.011,10.086-5.634c6.732-2.453,7.522-2.551,11.091-1.393c3.666,1.191,3.929,1.143,5.648-1.036
			c3.693-4.678,15.058-9.091,15.228-5.914c0.037,0.687-0.482,2.423-1.154,3.857c-1.808,3.863-0.907,12.324,1.602,15.035
			c1.132,1.223,2.503,3.678,3.047,5.456c0.604,1.979,2.924,4.806,5.977,7.286c4.791,3.894,5.231,4.035,11.069,3.558
			c3.345-0.273,6.361-0.259,6.704,0.032c0.344,0.29-1.425,3.032-3.93,6.091c-2.506,3.059-5.497,8.051-6.646,11.094
			c-2.938,7.775-14.375,21.4-18.228,21.716c-2.18,0.178-3.106,0.926-3.871,3.123
			C2038.121,1080.177,2031.761,1082.702,2025.33,1081.61z"/>
		<g id="CA-NL">
			<path fill="#D3D3D3" d="M2127.545,963.026c-3.043-3.277-3.314-7.536-0.748-11.72c2.724-4.439,2.646-9.56-0.153-10.202
				c-2.635-0.604-2.772-2.685-0.477-7.185c1.643-3.218,1.692-4.501,0.479-12.198c-2.184-13.859-3.207-30.251-2.908-46.603
				c0.02-1.106,0.086-5.613,0.148-10.017c0.129-9.282,1.692-12.787,8.404-18.838c3.671-3.311,4.682-3.788,6.026-2.846
				c3.99,2.795,5.044,6.273,5.595,18.465c0.294,6.503,0.319,12.246,0.057,12.76c-0.263,0.515-0.547,3.634-0.633,6.934l-0.156,5.997
				l2.281-3.196c1.256-1.759,2.273-3.506,2.263-3.881c-0.044-1.503,4.06-2.216,7.452-1.295c3.805,1.034,3.918,1.209,4.055,6.306
				l0.088,3.254l5.001-0.409c2.751-0.226,5.209-0.816,5.462-1.313c0.254-0.497,2.556-1.67,5.113-2.607
				c2.559-0.937,6.811-2.922,9.448-4.411c4.767-2.691,9.24-3.135,13.554-1.344c2.26,0.939,3.676,6.212,2.354,8.771
				c-0.878,1.704-0.697,2.342,1.093,3.862c1.848,1.567,2.832,1.652,7.102,0.615c6.283-1.527,7.373-1.23,7.645,2.084
				c0.231,2.824-1.528,6.602-4.563,9.794c-0.994,1.048-1.292,1.862-0.66,1.811c0.645-0.053,1.272,1.404,1.428,3.312
				c0.154,1.874,0.61,4.095,1.013,4.935c0.851,1.766,2.56,1.929,2.421,0.229c-0.152-1.851,4.312-8.224,5.85-8.35
				c0.773-0.062,2.085,1.629,2.924,3.774c1.731,4.428,3.12,4.674,7.036,1.252c1.518-1.328,3.129-2.097,3.582-1.71
				c0.452,0.387,1.171,3.682,1.599,7.323c0.426,3.641,0.985,8.286,1.243,10.323c0.674,5.348-2.894,11.52-7.041,12.18
				c-2.49,0.396-3.388,0.01-4.466-1.92c-1.69-3.027-2.395-2.974-3.813,0.296c-2.296,5.287-4.776,2.331-6.822-8.134
				c-1.498-7.662-2.878-10.637-4.856-10.476c-0.482,0.04-0.741,1.711-0.577,3.714c0.241,2.943-0.397,4.421-3.317,7.694
				c-3.272,3.665-3.654,4.746-4.026,11.38c-0.548,9.757-2.723,12.516-10.532,13.361c-6.729,0.728-7.376-0.84-2.553-6.197
				c2.625-2.915,3.16-4.304,2.897-7.516c-0.305-3.719-0.438-3.867-2.362-2.626c-3.614,2.332-7.88,3.588-9.155,2.695
				c-1.275-0.895-2.917,0.008-12.441,6.837c-2.877,2.063-6.458,4.049-7.956,4.414c-1.497,0.364-4.239,1.046-6.092,1.518
				c-1.852,0.471-7.738,3.033-13.078,5.695c-5.342,2.662-10.202,5.083-10.801,5.381S2128.828,964.409,2127.545,963.026z"/>
			<path fill="#D3D3D3" d="M1997.792,901.489c-0.188-0.15-2.069-0.358-4.181-0.464c-2.109-0.104-4.764-0.899-5.897-1.769
				c-1.634-1.252-3.247-1.378-7.768-0.611c-7.241,1.229-8.021,0.986-9.052-2.813c-1.712-6.302-1.905-7.068-2.074-8.213
				c-0.095-0.643-0.918-1.8-1.827-2.573c-1.488-1.263-1.962-1.182-4.7,0.811c-1.674,1.219-3.983,2.295-5.131,2.391
				c-2.531,0.212-6.306-2.98-4.82-4.077c1.08-0.796,0.863-6.746-0.37-10.191c-0.471-1.311-2.35-2.568-5.027-3.363
				c-7.583-2.246-16.316-13.654-14.196-18.54c0.486-1.118,1.327-2.069,1.869-2.113c1.028-0.084,2.454-4.05,2.694-7.498
				c0.077-1.1,1.03-2.81,2.119-3.8c1.089-0.991,2.326-3.029,2.75-4.53c0.737-2.609,0.965-2.703,5.144-2.141
				c2.406,0.323,5.557,1.267,7.005,2.1c3.708,2.129,7.281,1.106,9.335-2.677c1.651-3.042,1.938-3.165,6.766-2.886
				c2.772,0.159,5.83,0.194,6.795,0.077c1.424-0.174,1.736,0.446,1.658,3.276c-0.055,1.921-0.261,3.622-0.461,3.78
				c-4.188,3.34-7.348,6.665-7.678,8.08c-0.229,0.985-1.689,2.797-3.246,4.03c-3.312,2.619-3.424,3.833-0.559,6.029
				c2.563,1.966,8.388,0.724,10.118-2.157c2.072-3.448,6.927-5.662,10.647-4.856c4.818,1.042,8.29-0.944,9.986-5.717
				c1.434-4.028,1.217-9.203-0.441-10.611c-0.537-0.455-1.769,0.175-2.864,1.465c-1.203,1.417-3.196,2.369-5.327,2.543
				c-7.507,0.615-8.34-1.324-4.44-10.333c1.393-3.216,2.448-6.868,2.346-8.116c-0.247-3.01-4.163-10.318-6.351-11.851
				c-0.959-0.671-1.803-1.954-1.876-2.851c-0.228-2.779-5.914-11.038-9.366-13.6c-2.258-1.676-3.633-3.759-4.394-6.664
				c-0.608-2.323-1.864-7.097-2.79-10.609c-0.927-3.511-1.95-9.296-2.274-12.857c-0.685-7.5-2.868-11.363-6.706-11.86
				c-1.444-0.188-4.159-1.129-6.03-2.093c-3.786-1.95-4.624-4.877-2.454-8.585c0.922-1.577,1.005-2.943,0.271-4.509
				c-1.079-2.307-1.12-3.23-0.38-8.699c0.473-3.496-0.098-3.653-9.141-2.527c-2.146,0.268-3.684,0.229-3.416-0.086
				c0.268-0.314-0.54-3.754-1.794-7.643c-1.788-5.545-2.701-7.099-4.237-7.203c-1.078-0.072-2.517-0.882-3.199-1.796
				c-1.604-2.155-6.935-16.766-6.362-17.439c0.956-1.128,13.394,8.197,17.885,13.41c2.627,3.052,5.542,5.485,6.479,5.409
				c0.935-0.077,2.744,1.098,4.018,2.611c1.276,1.512,3.903,3.558,5.839,4.545c2.299,1.173,4.405,3.464,6.068,6.597
				c1.639,3.088,3.161,4.755,4.266,4.674c0.944-0.072,2.812,1.292,4.151,3.03c1.883,2.446,3.357,3.23,6.539,3.475
				c3.544,0.273,4.455,0.871,6.646,4.363c1.396,2.227,2.938,5.806,3.426,7.956c0.83,3.661,1.183,3.965,5.59,4.829
				c2.587,0.506,5.536,1.704,6.556,2.661c1.69,1.584,1.76,2.182,0.799,6.76c-0.886,4.217-0.811,5.391,0.471,7.333
				c0.838,1.271,1.854,3.413,2.256,4.759c0.631,2.117,2.227,2.836,11.783,5.308c6.08,1.572,11.856,2.792,12.838,2.711
				c0.98-0.081,3.653,1.572,5.938,3.673l4.154,3.82l8.885-0.316c4.887-0.174,10.641,0.197,12.787,0.824
				c4.006,1.17,6.389,0.429,9.177-2.857c0.874-1.03,2.712-1.012,8.556,0.082c4.095,0.767,7.747,1.794,8.117,2.284
				c1.45,1.918,0.083,5.702-2.549,7.053c-1.489,0.765-4.88,4.295-7.533,7.846c-2.653,3.55-6.054,7.991-7.556,9.868
				c-1.502,1.876-4.644,5.802-6.984,8.722c-4.351,5.431-6.067,11.595-3.443,12.363c2.188,0.64,11.557-10.999,11.957-14.854
				c0.25-2.396,2.472-6.097,7.34-12.22c6.31-7.94,7.335-8.812,10.681-9.086c3.066-0.251,4.138,0.231,6.25,2.812
				c2.131,2.605,2.946,2.964,4.982,2.2c4.576-1.72,9.571-1.736,12.152-0.042c1.391,0.914,5.342,2.927,8.779,4.474
				c3.438,1.548,6.385,2.892,6.552,2.984c0.167,0.094-0.137,1.393-0.676,2.887c-1.377,3.82,1.084,9.677,5.718,13.611
				c3.537,3.001,8.357,9.749,8.537,11.951c0.135,1.644-5.801,12.584-8.938,16.474l-2.769,3.436l-4.49-4.848
				c-2.47-2.667-4.946-5.115-5.505-5.441c-0.557-0.327-2.545,0.338-4.418,1.479c-1.872,1.14-5.71,2.819-8.527,3.73
				c-2.818,0.911-8.276,3.175-12.13,5.031c-3.854,1.856-11.788,5.646-17.632,8.422c-5.842,2.774-12.693,6.112-15.222,7.415
				c-9.182,4.73-29.308,13.588-33.144,14.585c-3.187,0.828-5.02,0.592-9.701-1.248c-3.174-1.249-6.207-1.931-6.741-1.516
				c-0.533,0.414-0.88,2.553-0.77,4.75c0.247,4.935-0.104,13.92-0.564,14.479C2002.902,900.94,1998.245,901.847,1997.792,901.489z"
				/>
		</g>
		<g id="CA-NS">
			<path fill="#D3D3D3" d="M2061.947,1111.124c-5.929-0.783-9.029-3.844-12.062-11.906c-1.483-3.943-1.863-6.261-1.325-8.117
				c1.146-3.962,6.95-14.243,10.897-19.305c1.939-2.487,4.06-5.431,4.708-6.541c0.649-1.109,2.286-2.395,3.64-2.854
				c2.775-0.942,10.954-7.48,10.855-8.678c-0.085-1.038-4.415,1.063-9.464,4.592c-8.774,6.134-8.197-2.708,0.981-15.035
				c4.037-5.418,5.035-6.201,8.105-6.355c9.522-0.479,20.049-3.046,23.337-5.694c2.041-1.644,3.979-2.466,5.005-2.122
				c0.919,0.308,3.754,0.465,6.299,0.35c5.27-0.238,9.608,1.729,11.575,5.252c1.255,2.246,0.938,2.895-4.548,9.35
				c-3.242,3.815-6.51,7.704-7.261,8.641c-3.236,4.041-11.456,11.434-13.475,12.119c-1.288,0.438-3.229,2.899-4.695,5.952
				c-2.295,4.778-2.76,5.188-5.655,4.994c-2.61-0.175-3.313,0.228-4.072,2.336c-0.506,1.402-0.881,3.007-0.835,3.567
				s-1.002,4.371-2.327,8.468c-1.82,5.629-3.867,9.21-8.38,14.663c-3.285,3.968-6.066,7.159-6.183,7.094
				C2066.95,1111.826,2064.647,1111.481,2061.947,1111.124z"/>
			<path fill="#D3D3D3" d="M2122.842,1029.926c-0.891-0.599-3.99-3.262-6.886-5.918c-3.861-3.541-5.021-5.185-4.348-6.166
				c0.506-0.735,1.964-5.603,3.24-10.815c2.591-10.566,5.261-17.73,6.653-17.845c1.76-0.145,4.387,4.123,4.687,7.616
				c0.487,5.681,1.603,7.701,4.513,8.172c3.542,0.573,8.565,4.682,8.77,7.172c0.088,1.082-1.054,4.252-2.538,7.044
				c-1.958,3.681-3.336,5.126-5.02,5.264c-1.439,0.118-3.034,1.39-4.204,3.354
				C2125.619,1031.312,2125.183,1031.503,2122.842,1029.926z"/>
		</g>
		<path id="CA-ON" fill="#D3D3D3" d="M1756.993,1236.797c0.89-2.129,2.194-3.143,4.939-3.836c2.051-0.518,4.274-1.361,4.942-1.875
			c1.755-1.351,2.143-8.38,0.509-9.214c-0.922-0.471-1.068-1.248-0.495-2.619c0.449-1.072,0.98-3.644,1.182-5.714
			c0.2-2.07,1.136-4.404,2.078-5.188c3.385-2.814,6.04-8.881,5.419-12.38c-0.327-1.839-0.963-6.979-1.413-11.421
			c-0.768-7.561-0.625-8.503,2.236-14.774l3.058-6.697l-2.106-3.798c-1.16-2.09-3.14-4.574-4.399-5.522
			c-2.232-1.682-3.272-4.342-1.745-4.468c0.421-0.034,3.608,2.4,7.087,5.41c5.742,4.969,11.415,8.005,16.907,9.048
			c5.581,1.06,7.84-8.346,3.327-13.859c-2.945-3.601-14.767-14.491-17.738-16.344c-1.104-0.688-4.995-1.35-8.647-1.468
			c-3.653-0.12-9.153-0.727-12.221-1.347c-3.96-0.803-9.84-0.782-20.255,0.071c-13.689,1.12-14.784,1.07-16.283-0.735
			c-0.883-1.064-4.073-2.964-7.089-4.223c-4.454-1.858-5.546-2.788-5.819-4.949c-0.184-1.464-1.735-3.903-3.447-5.419
			c-2.67-2.367-2.886-2.868-1.512-3.528c2.142-1.029,1.84-3.168-0.905-6.422c-1.244-1.477-3.3-4.593-4.569-6.926
			c-2.02-3.712-2.789-4.277-6.185-4.539c-3.88-0.299-14.886-4.496-17.657-6.734c-0.81-0.651-1.729-2.901-2.044-4.997
			c-0.315-2.097-1.02-5.072-1.564-6.612l-0.991-2.801l-8.005,1.187c-7.418,1.099-8.443,1.006-14.008-1.254l-6.003-2.438
			l-3.899,2.932c-3.548,2.667-3.746,3.062-2.202,4.373c1.546,1.312,1.129,1.882-4.624,6.341c-3.477,2.694-7.804,6.769-9.614,9.052
			c-3.683,4.643-4.159,4.734-18.653,3.546c-4.166-0.342-10.758-0.45-14.647-0.241c-6.704,0.36-13.584-1.448-13.762-3.618
			c-0.035-0.43-1.216-0.687-2.621-0.572c-1.558,0.128-4.107-1.034-6.515-2.97c-3.927-3.155-4.024-3.174-13.105-2.439
			c-6.587,0.532-9.579,0.375-10.688-0.566c-0.848-0.719-3.312-1.479-5.478-1.689c-5.566-0.541-6.203-1.228-7.535-8.132
			c-1.087-5.636-1.46-6.256-4.488-7.484c-3.175-1.285-3.319-1.566-3.679-7.224c-0.407-6.379-1.411-33.194-1.607-42.908
			c-0.066-3.305-0.417-13.162-0.779-21.901c-0.828-19.952-2.293-16.688,19.446-43.339c4.582-5.618,10.96-13.766,14.173-18.108
			c3.211-4.342,6.264-8.43,6.781-9.084c0.519-0.653,5.793-7.906,11.72-16.118c5.926-8.21,12.818-17.595,15.312-20.854
			c12.224-15.96,17.683-23.201,19.319-25.625l1.793-2.655l3.473,1.61c4.259,1.975,11.496,7.706,11.617,9.201
			c0.05,0.604,1.683,2.407,3.627,4.007c2.613,2.147,5.116,3.08,9.574,3.565c4.161,0.453,7.04,1.457,9.273,3.234
			c3.071,2.442,5.671,3.195,10.312,2.984c1.127-0.051,4.671,1.882,7.876,4.294l5.827,4.388l18.727-0.905
			c16.312-0.788,19.279-0.678,23.02,0.858l4.292,1.767l0.029,8.693c0.018,4.781-0.322,9.113-0.754,9.626
			c-0.438,0.521,0.157,2.231,1.348,3.871c1.174,1.615,2.577,4.947,3.118,7.405c1.739,7.884,1.976,8.692,3.066,10.479
			c0.589,0.965,1.099,3.83,1.132,6.364c0.051,3.721,0.705,5.46,3.406,9.037c4.345,5.751,17.516,19.252,18.688,19.156
			c2.279-0.187,9.315,7.521,11.533,12.632l2.386,5.499l6.124-0.969l6.124-0.968l1.049,5.044c1.658,7.975,2.367,11.565,3.433,17.391
			c0.547,2.99,1.28,6.542,1.63,7.894c0.349,1.351,1.126,5.125,1.728,8.387c0.6,3.262,1.349,7.039,1.661,8.393
			c0.749,3.236,2.338,11.107,3.486,17.273c0.507,2.717,1.246,6.495,1.642,8.394c2.479,11.879,4.118,19.967,5.079,25.056
			c0.604,3.197,2.69,8.717,4.637,12.261c2.986,5.438,4.498,7.014,9.664,10.058c6.811,4.014,16.068,6.469,25.187,6.679
			c4.17,0.096,7.515,0.924,10.843,2.686c2.646,1.4,5.669,2.486,6.719,2.412c1.064-0.075,3.253,1.472,4.949,3.498l3.043,3.632
			l8.567-1.178c7.421-1.021,9.372-1.71,14.574-5.15c6.021-3.981,10.931-5.98,11.189-4.558c0.276,1.513,1.054,3.993,1.889,6.031
			c0.672,1.637,0.099,2.835-2.683,5.611c-5.793,5.784-10.513,11.686-17.144,21.436c-3.448,5.07-6.715,9.289-7.259,9.377
			c-1.67,0.269-5.35,4.353-4.707,5.224c1.312,1.78-6.429,5.466-13.034,6.203c-11.867,1.328-28.428,9.78-31.588,16.123
			c-3.131,6.286-2.983,7.733,0.917,9.001c1.938,0.629,4.375,0.843,5.417,0.479c1.436-0.504,2.366,0.144,3.83,2.664
			c2.271,3.905,1.657,4.524-5.038,5.072c-4.034,0.331-14.587,5.332-17.186,8.146c-1.217,1.317-1.069,1.696,1.238,3.164l2.62,1.67
			l-2.681,0.911c-1.475,0.501-4.706,0.572-7.179,0.16c-9.647-1.605-11.801-0.374-22.56,12.915
			c-5.896,7.283-7.312,8.492-10.315,8.813c-1.914,0.204-4.92,0.64-6.677,0.969l-3.198,0.597L1756.993,1236.797z"/>
		<path id="CA-PE" fill="#D3D3D3" d="M2092.524,1031.022c-0.312-0.265-4.312-0.336-8.891-0.158
			c-4.578,0.177-10.851-0.201-13.938-0.841c-6.836-1.414-8.234-1.635-10.163-1.594c-4.084,0.083-4.628-1.346-2.596-6.807
			c1.074-2.884,2.54-5.29,3.26-5.349c0.72-0.06,3.497,1.672,6.174,3.848c3.915,3.182,5.062,3.676,5.867,2.529
			c0.588-0.839,3.023-1.591,5.925-1.828c2.709-0.222,5.649-0.866,6.532-1.432c3.049-1.952,11.777-4.961,12.306-4.242
			c0.292,0.396,0.001,1.985-0.647,3.532s-1.119,4.811-1.046,7.252C2095.427,1029.893,2094.085,1032.346,2092.524,1031.022z"/>
		<g id="CA-QC">
			<path fill="#92B8C4" d="M1897.354,1121.142c-1.02-1.442-2.157-4.172-2.53-6.064c-0.638-3.252-0.903-3.439-4.809-3.409
				c-4.134,0.033-9.308,2.529-14.875,7.173c-1.897,1.582-4.274,2.226-9.935,2.689c-7.386,0.604-7.463,0.584-10.098-2.679
				c-1.462-1.81-3.505-3.221-4.54-3.141c-1.036,0.082-4.269-1.063-7.185-2.544c-3.698-1.88-6.981-2.697-10.868-2.71
				c-8.471-0.026-18.081-2.348-24.146-5.832c-4.471-2.568-6.11-4.309-9.042-9.589c-2.164-3.897-4.044-8.991-4.752-12.876
				c-0.643-3.534-1.46-7.757-1.814-9.383c-0.355-1.627-1.487-7.178-2.519-12.336c-1.029-5.158-2.189-10.934-2.577-12.832
				c-0.389-1.9-1.114-5.453-1.612-7.895c-0.5-2.443-3.203-15.993-6.007-30.111c-2.806-14.118-5.441-26.821-5.857-28.231
				c-0.662-2.248-0.38-2.669,2.314-3.441c2.838-0.812,2.999-1.106,2.146-3.883c-0.721-2.351-0.396-3.959,1.489-7.386
				c1.325-2.41,2.312-5.511,2.195-6.892s-2.347-6.173-4.953-10.65s-5.368-9.896-6.136-12.04s-2.252-4.925-3.297-6.18
				c-1.288-1.55-1.943-3.836-2.037-7.119c-0.149-5.239-3.253-10.695-7.011-12.327c-1.195-0.521-2.085-1.941-2.231-3.567
				c-0.134-1.487-1.213-3.754-2.396-5.036c-1.184-1.283-2.2-2.781-2.256-3.33c-0.155-1.483,4.36-6.199,9.702-10.132
				c2.593-1.907,5.997-5.294,7.564-7.523c1.568-2.23,4.673-6.41,6.898-9.288c2.711-3.503,5.013-8.281,6.971-14.464
				c2.65-8.372,2.84-10.016,2.047-17.644c-0.642-6.169-1.786-10.528-4.292-16.356c-1.88-4.371-3.783-9.116-4.233-10.545
				c-1.421-4.524-11.105-13.366-17.816-16.267c-8.027-3.471-14.443-8.905-15.056-12.752c-0.257-1.617,0.146-4.744,0.893-6.949
				c0.748-2.206,1.427-4.693,1.509-5.526c0.08-0.833,1.006-2.336,2.057-3.339c1.443-1.378,1.814-2.985,1.521-6.582
				c-0.275-3.357,0.137-5.42,1.395-7c1.654-2.076,1.656-2.533,0.026-6.248c-0.967-2.204-2.05-5.098-2.405-6.432
				c-0.801-2.997-3.848-7.954-7.17-11.664c-2.269-2.532-2.603-3.9-3.448-14.113c-0.676-8.157-1.358-11.736-2.45-12.843
				c-0.833-0.844-3.039-4.505-4.904-8.134l-3.39-6.6l2.138-5.441c2.037-5.185,2.355-5.49,6.792-6.471
				c7.401-1.638,13.766-1.889,18.222-0.715c5.864,1.544,13.875,1.603,16.978,0.123c1.456-0.694,4.29-3.178,6.295-5.518
				c2.007-2.34,4.121-4.284,4.699-4.318c1.753-0.105,21.84,8.458,28.587,12.187c5.137,2.839,6.327,3.966,6.345,6.002
				c0.012,1.378,0.871,3.588,1.91,4.911c1.695,2.158,2.948,2.445,12.223,2.806c5.683,0.221,12.565,0.927,15.294,1.571l4.964,1.168
				l-0.234,5.502c-0.229,5.369,0.792,8.747,6.459,21.352c0.718,1.596,1.361,4.138,1.431,5.647c0.078,1.699,1.162,3.625,2.847,5.054
				c1.496,1.27,3.774,4.247,5.062,6.614l2.342,4.304l4.859-1c4.683-0.962,5.071-0.848,10.507,3.076
				c3.105,2.241,6.896,4.283,8.424,4.536c1.53,0.254,2.813,0.861,2.854,1.35c0.152,1.855,2.17,0.571,6.073-3.867
				c3.013-3.424,4.129-5.656,4.383-8.757c0.242-2.93,0.979-4.516,2.496-5.363c1.327-0.742,2.539-2.906,3.163-5.657
				c1.146-5.048,0.132-15.389-1.791-18.263c-0.703-1.052-1.186-2.362-1.072-2.911c0.115-0.549,0.461-3.493,0.77-6.54
				c0.51-5.012,2.577-8.766,4.334-7.869c0.373,0.19,1.125,2.007,1.671,4.039c1.228,4.566,6.144,11.799,7.921,11.654
				c1.213-0.1,4.867,9.634,4.567,12.168c-0.326,2.763,0.521,3.078,5.987,2.23l5.697-0.884l0.366,6.344
				c0.201,3.489,0.013,7.897-0.419,9.797c-0.51,2.235-0.397,4.053,0.311,5.152c1.334,2.066,6.926,5.012,10.688,5.631
				c3.415,0.561,3.772,1.423,5.397,13.061c0.719,5.152,2.113,11.576,3.099,14.276c0.984,2.7,2.188,6.489,2.674,8.419
				c0.596,2.371,1.94,4.165,4.138,5.528c3.168,1.964,8.736,10.292,9.018,13.486c0.077,0.873,1.037,2.276,2.133,3.115
				c1.096,0.84,2.914,3.192,4.038,5.227c1.979,3.577,1.99,3.857,0.345,8.589l-1.702,4.891l-5.281-0.114
				c-2.903-0.063-6.678-0.299-8.385-0.523c-2.754-0.362-3.347,0.018-5.243,3.358c-2.346,4.133-4,4.758-6.835,2.585
				c-1.026-0.787-4.648-1.77-8.05-2.185c-6.762-0.826-7.381-0.493-8.131,4.372c-0.248,1.605-1.464,3.402-2.809,4.154
				c-1.837,1.025-2.311,2.079-2.1,4.662c0.194,2.373-0.543,4.343-2.553,6.82c-2.474,3.051-2.716,3.978-1.943,7.468
				c0.483,2.193,1.59,5.118,2.458,6.501c2.638,4.206,9.054,9.667,13.311,11.331c4.493,1.757,5.405,4.086,3.896,9.961
				c-0.822,3.198-0.67,3.585,2.209,5.679c3.115,2.266,6.587,2.223,12.215-0.152c1.857-0.783,2.148-0.393,3.153,4.235
				c0.763,3.519,1.946,5.813,3.817,7.401c2.475,2.1,3.189,2.202,8.156,1.164c4.475-0.934,5.819-0.851,7.55,0.478
				c1.158,0.888,2.881,1.69,3.828,1.785c4.705,0.468,14.919-0.106,15.996-0.901c0.672-0.496,1.258-2.895,1.301-5.33
				c0.099-5.673,0.281-12.395,0.345-12.75c0.026-0.15,1.979,0.52,4.339,1.489c3.164,1.301,5.358,1.531,8.35,0.878
				c4.277-0.935,19.8-7.67,35.965-15.606c24.8-12.176,40.098-19.26,45.849-21.232c3.449-1.182,6.842-2.708,7.54-3.391
				c0.747-0.73,1.618-0.895,2.119-0.398c2.553,2.523,7.868,8.659,7.906,9.127c0.025,0.301-2.584,2.914-5.795,5.808
				c-8.569,7.721-13.509,14.361-13.79,18.536c-0.13,1.941-1.92,7.731-3.976,12.867c-2.055,5.135-4.051,10.49-4.433,11.9
				c-0.865,3.19-16.275,13.17-26.293,17.026c-3.745,1.442-12.063,4.621-18.485,7.063c-37.63,14.316-55.679,22.852-58.774,27.792
				c-0.911,1.456-1.882,4.862-2.157,7.571c-0.273,2.71-1.182,8.028-2.018,11.823c-1.32,5.99-1.832,6.923-3.894,7.091
				c-4.74,0.388-13.599,12.306-16.28,21.9c-0.789,2.824-2.679,7.508-4.198,10.405c-1.52,2.899-2.846,6.845-2.948,8.771
				c-0.447,8.441-13.712,34.449-21.147,41.464c-10.444,9.852-24.476,27.463-22.921,28.768c0.235,0.197,3.896-4.169,8.134-9.704
				c4.237-5.536,10.472-12.525,13.854-15.533c5.812-5.167,12.006-12.887,16-19.942c3.564-6.3,9.646-21.286,9.478-23.355
				c-0.096-1.165,0.259-3.142,0.789-4.391c1.53-3.61,9.778-15.671,13.312-19.464c1.775-1.906,5.29-5.706,7.812-8.442
				c2.521-2.738,7.151-6.843,10.29-9.124s8.88-6.747,12.759-9.926c4.913-4.025,8.988-6.427,13.436-7.917
				c5.993-2.007,6.751-2.057,12.376-0.808c4.908,1.09,6.362,1.915,8.045,4.567c4.575,7.214,4.372,12.393-0.774,19.796
				c-4.994,7.186-6.933,8.671-12.727,9.748c-11.339,2.112-20.638,5.565-23.517,8.733c-3.734,4.109-6.966,5.52-14.826,6.471
				c-9.402,1.136-9.906,1.851-8.305,11.771l1.309,8.107l-3.791,0.929c-2.086,0.512-5.006,0.81-6.489,0.665
				c-1.997-0.196-3.062,0.353-4.103,2.116c-1.726,2.921-4.843,17.084-5.116,23.253c-0.111,2.492-0.397,7.482-0.637,11.09
				c-0.238,3.605-0.471,8.506-0.516,10.888c-0.146,7.752-2.576,14.574-6.305,17.694c-1.877,1.571-4.304,4.405-5.395,6.296
				c-1.089,1.892-2.912,3.706-4.05,4.034c-1.137,0.327-9.197,2.786-17.909,5.463c-8.713,2.678-18.241,5.064-21.173,5.305
				C1899.772,1123.718,1899.01,1123.485,1897.354,1121.142z"/>
			<path fill="#92B8C4" d="M2047.541,955.307c-1.381-0.111-3.702-0.885-5.157-1.718c-1.455-0.835-5.249-1.86-8.429-2.282
				c-7.25-0.957-8.844-3.407-4.771-7.336c2.119-2.044,3.966-2.702,9.123-3.249c13.593-1.443,18.545-1.253,27.931,1.069
				c9.35,2.313,9.476,2.386,9.737,5.581c0.312,3.805-0.044,3.992-11.062,5.832C2052.921,955.207,2050.278,955.527,2047.541,955.307z
				"/>
		</g>
		<path id="CA-SK" fill="#D3D3D3" d="M1413.002,1073.873c-0.246-0.193-4.059-0.361-8.475-0.373
			c-4.417-0.012-9.164-0.095-10.551-0.185c-1.387-0.091-5.46-0.21-9.052-0.268c-3.592-0.058-7.665-0.172-9.05-0.253
			c-1.387-0.081-5.46-0.206-9.053-0.277c-3.593-0.072-17.723-1.697-31.399-3.615c-13.677-1.915-25.551-3.573-26.389-3.682
			c-4.608-0.599-7.22-0.967-13.196-1.864c-3.631-0.545-7.513-1.073-8.625-1.174c-1.111-0.102-5.579-0.699-9.924-1.327
			c-6.421-0.928-7.833-1.457-7.528-2.822c0.351-1.566,5.553-34.407,5.981-37.755c0.107-0.837,1.125-7.468,2.263-14.733
			c1.138-7.269,3.12-20.071,4.405-28.454c1.286-8.384,3.817-24.619,5.625-36.08s3.394-21.744,3.523-22.854
			c0.129-1.109,1.126-7.737,2.218-14.729c1.093-6.994,3.325-21.403,4.963-32.021c1.638-10.62,3.978-25.71,5.201-33.536
			c1.222-7.826,3.303-21.167,4.624-29.648l2.403-15.419l5.193,0.005c2.856,0.002,7.422,0.158,10.146,0.345
			c2.723,0.187,8.401-0.357,12.617-1.211c7.233-1.464,8.018-1.426,13.946,0.672c5.854,2.073,8.269,2.06,8.097-0.039
			c-0.092-1.121-22.112-9.7-27.465-10.701c-2.242-0.419-5.085-0.681-6.318-0.583c-1.234,0.097-3.214-0.646-4.399-1.652
			c-2.378-2.018-5.293-2.127-8.118-0.304c-2.175,1.403-2.246,1.083-1.332-5.936c0.528-4.049,1.037-5.088,2.364-4.827
			c1.512,0.298,8.673,1.17,15.437,1.88c1.351,0.143,3.37,0.373,4.484,0.513c3.383,0.424,45.387,5.089,48.096,5.341
			c1.39,0.129,7.998,0.866,14.682,1.635c6.686,0.77,13.964,1.424,16.173,1.454c3.87,0.053,4.022,0.182,4.146,3.492
			c0.071,1.891-0.346,11.83-0.925,22.085c-0.579,10.256-1.152,20.914-1.274,23.683c-0.217,4.938-1.217,7.625-2.888,7.762
			c-1.529,0.125-6.953,7.233-7.997,10.478c-0.758,2.358-0.683,4.019,0.286,6.398c2.792,6.85,2.685,10.325-0.436,14.12
			c-2.025,2.463-2.606,3.936-1.922,4.864c0.799,1.084,1.532,0.787,3.92-1.581c1.616-1.602,3.603-2.968,4.415-3.033
			c1.495-0.123,1.733,3.019,1.739,22.935c0.001,3.034,0.076,9.575,0.166,14.534c0.091,4.96,0.142,11.05,0.115,13.536
			c-0.027,2.484,0.05,9.026,0.174,14.534c0.122,5.509,0.175,11.6,0.117,13.536c-0.058,1.936,0.018,8.477,0.166,14.534
			s0.206,12.148,0.126,13.535c-0.079,1.386-0.013,7.927,0.148,14.536c0.162,6.608,0.229,12.698,0.148,13.533
			s-0.013,7.149,0.15,14.034s0.229,13.2,0.146,14.035c-0.083,0.834-0.018,7.15,0.145,14.035c0.163,6.885,0.211,13.327,0.106,14.317
			c-0.102,0.99-0.044,4.711,0.132,8.267C1415.758,1073.34,1414.949,1075.405,1413.002,1073.873z"/>
	</g>
	<g id="USA">
		<path id="US-AL" fill="#D3D3D3" d="M1696.549,1566.247c-0.536-1.113-1.547-1.242-4.154-0.529l-3.445,0.944l-2.531-37.806
			c-1.392-20.793-2.492-39.839-2.445-42.326s0.095-8.358,0.106-13.049c0.013-4.689,0.107-9.301,0.21-10.245
			c0.103-0.945,0.173-5.661,0.154-10.478c-0.017-4.817,0.014-9.468,0.07-10.332c0.068-1.087,1.304-1.72,3.981-2.043
			c2.135-0.258,13.149-1.499,24.479-2.758l20.596-2.29l1.293,3.646c0.71,2.005,1.971,5.848,2.8,8.539s2.613,7.513,3.965,10.712
			c2.287,5.413,4.179,12.458,6.4,23.828c0.502,2.569,2.452,7.14,4.333,10.156c3.546,5.685,3.685,6.36,4.619,22.452
			c0.471,8.12,0.989,10.803,3.672,19.018c0.657,2.02,0.92,3.852,0.582,4.074c-0.337,0.22-6.664,0.97-14.057,1.666
			c-7.393,0.695-19.469,2.028-26.835,2.963c-11.798,1.498-13.583,1.958-14.984,3.869c-1.99,2.714-2.038,2.396,1.359,9.224
			c1.563,3.141,3.235,6.919,3.717,8.397l0.875,2.687l-7.026,0.576C1698.907,1567.582,1697.09,1567.371,1696.549,1566.247z"/>
		<path id="US-AR" fill="#D3D3D3" d="M1557.7,1494.898l-0.896-7.422l-3.315-0.66c-3.875-0.772-3.42,1.545-5.443-27.789
			c-0.757-10.974-1.935-26.125-2.616-33.671l-1.241-13.716l43.867-3.196c24.126-1.758,44.158-2.949,44.514-2.646
			c0.356,0.302,0.24,2.651-0.258,5.223c-1.031,5.323-0.714,5.733,5.341,6.933c2.385,0.472,4.373,1.325,4.419,1.896
			c0.047,0.569-1.208,3.727-2.79,7.013c-1.58,3.286-3.226,8.238-3.656,11.004c-0.502,3.237-2.042,6.737-4.327,9.832
			c-2.524,3.419-3.638,6.114-3.86,9.338c-0.202,2.949-1.5,6.405-3.714,9.897c-4.861,7.667-6.085,12.994-5.159,22.447l0.778,7.967
			l-30.372,2.486l-30.374,2.486L1557.7,1494.898z"/>
		<path id="US-AZ" fill="#D3D3D3" d="M1206.985,1528.499c-5.021-0.655-11.494-1.673-14.386-2.259
			c-2.892-0.588-6.986-0.927-9.096-0.754c-3.144,0.257-5.084-0.536-10.733-4.389c-3.792-2.588-7.862-5.442-9.043-6.344
			c-1.182-0.902-6.409-4.06-11.618-7.017c-11.338-6.437-28.131-17.028-33.326-21.021c-2.061-1.584-5.376-3.407-7.365-4.053
			c-3.8-1.232-10.083-7.048-9.292-8.599c0.255-0.498,2.855-2.112,5.779-3.588c4.902-2.474,5.296-2.933,5.053-5.899
			c-0.16-1.953-1.106-3.863-2.404-4.859c-3.085-2.364-2.879-4.749,0.8-9.215c1.781-2.163,3.981-5.736,4.888-7.943
			c0.988-2.402,2.366-4.069,3.436-4.157c0.983-0.081,2.921-1.542,4.307-3.249l2.521-3.102l-2.645-4.162
			c-2.164-3.403-2.783-5.75-3.392-12.88c-0.409-4.795-0.46-8.741-0.114-8.771c0.347-0.028,0.635-4.002,0.642-8.83
			c0.009-6.245,0.515-9.624,1.752-11.703c1.65-2.771,2.033-2.914,7.52-2.779l5.78,0.143l2.527-8.813
			c1.39-4.847,2.833-9.037,3.207-9.313c0.718-0.528,96.818,14.912,98.661,15.853c0.676,0.345,0.82,1.429,0.39,2.919
			c-0.378,1.304-0.8,3.691-0.939,5.309c-0.14,1.617-2.305,17.104-4.812,34.416c-2.507,17.312-4.662,32.387-4.789,33.502
			c-0.127,1.114-1.42,10.25-2.874,20.303c-1.453,10.052-3.69,25.924-4.973,35.272
			C1219.775,1532.009,1221.356,1530.375,1206.985,1528.499z"/>
		<g id="US-CA">
			<path fill="#5DA2B8" d="M1095.331,1471.487c-1.709-0.821-22.908-4.779-35.818-6.688c-9.071-1.34-9.958-2.532-11.54-15.485
				c-1.162-9.525-1.457-10.39-5.386-15.806c-2.285-3.15-5.959-6.773-8.164-8.051c-2.207-1.278-4.628-3.493-5.385-4.924
				c-0.755-1.429-3.166-3.83-5.355-5.336c-2.191-1.506-5.634-4.777-7.652-7.271c-3.998-4.94-9.247-8.441-12.29-8.2
				c-2.93,0.232-9.352-3.328-12.487-6.924c-3.094-3.546-3.387-7.869-0.764-11.291c2.011-2.624,1.315-6.671-3.198-18.562
				c-2.133-5.62-3.975-11.365-4.093-12.767c-0.117-1.403-1.877-4.871-3.909-7.707c-4.295-5.996-4.331-6.171-2.057-10.267
				c2.474-4.457,1.596-12.668-1.765-16.513c-2.151-2.46-2.485-3.625-2.253-7.836c0.15-2.722,1.051-6.124,2.003-7.562
				c2.423-3.661,1.129-7.485-3.735-11.041c-3.516-2.569-4.056-3.488-4.503-7.657c-0.279-2.607-1.642-6.823-3.028-9.372
				c-1.385-2.548-3.247-7.135-4.135-10.196c-1.526-5.255-1.472-6.203,0.986-17.033l2.603-11.468l-2.984-5.939
				c-2.937-5.846-2.96-6.006-1.544-9.984c0.792-2.225,2.402-5.345,3.578-6.935c1.176-1.589,4.295-6.759,6.93-11.488
				c4.12-7.393,4.75-9.297,4.497-13.58c-0.188-3.181,0.119-4.89,0.851-4.727c1.263,0.282,29.875,8.053,46.814,12.714
				c5.928,1.63,15.479,4.255,21.224,5.83c10.39,2.853,10.441,2.882,9.641,5.565c-0.442,1.483-2.461,8.93-4.488,16.545
				c-2.025,7.615-5.465,20.538-7.643,28.719c-2.178,8.18-4.659,17.536-5.513,20.792c-1.542,5.878-0.998,12.638,1.213,15.063
				c0.522,0.572,3.816,5.547,7.319,11.055c21.065,33.118,71.484,111.245,72.443,112.258c0.628,0.663,1.294,4.295,1.48,8.07
				c0.263,5.319,0.886,7.752,2.77,10.801c2.812,4.551,2.575,5.523-1.707,7.006c-2.34,0.81-3.614,2.239-5.075,5.698
				c-1.073,2.54-3.359,6.333-5.08,8.428c-3.681,4.483-3.843,9.151-0.428,12.264c3.197,2.915,2.83,3.822-2.727,6.739
				C1097.725,1472.233,1097.214,1472.396,1095.331,1471.487z"/>
			<path fill="#5DA2B8" d="M1023.511,1446.931c-3.197-1.388-1.79-4.031,1.828-3.432c2.903,0.481,3.423,1.532,1.628,3.289
				C1026.154,1447.582,1025.109,1447.625,1023.511,1446.931z"/>
			<path fill="#5DA2B8" d="M1025.387,1433.582c-1.766-1.702-1.877-3.361-0.236-3.496c1.667-0.137,3.853,1.719,3.989,3.386
				C1029.28,1435.176,1027.106,1435.24,1025.387,1433.582z"/>
			<path fill="#5DA2B8" d="M1002.301,1412.018c-3.741-0.36-9.276-3.006-9.398-4.491c-0.039-0.485,2.328-1.079,5.262-1.318
				c3.91-0.32,6.29,0.1,8.908,1.568c1.966,1.102,3.609,2.435,3.652,2.961C1010.82,1411.906,1007.065,1412.478,1002.301,1412.018z"/>
		</g>
		<path id="US-CO" fill="#D3D3D3" d="M1374.889,1391.741c-4.478-0.688-19.992-2.58-33.951-4.139
			c-1.113-0.124-4.304-0.487-7.089-0.806c-2.786-0.318-6.201-0.676-7.59-0.794c-2.397-0.203-16.376-1.704-51.625-5.546
			c-8.631-0.94-18.653-2.037-22.273-2.436c-4.654-0.516-6.561-1.153-6.514-2.179c0.037-0.798,2.241-17.206,4.898-36.462
			c2.657-19.257,4.941-35.924,5.076-37.038c0.136-1.115,1.048-7.736,2.028-14.714c1.545-11.021,2.033-12.688,3.709-12.686
			c1.061,0,6.437,0.578,11.945,1.282c5.507,0.706,11.099,1.389,12.423,1.518c1.326,0.13,3.209,0.408,4.188,0.618
			s2.916,0.486,4.306,0.613c3.654,0.336,15.055,1.776,37.005,4.678c10.6,1.401,21.08,2.577,23.291,2.614
			c2.21,0.038,5.383,0.188,7.051,0.334c1.667,0.146,4.622,0.385,6.565,0.53c18.376,1.381,23.746,2.195,23.663,3.595
			c-0.465,7.807-2.638,46.753-2.781,49.864c-0.102,2.215-0.287,5.165-0.41,6.555c-0.123,1.389-0.307,4.113-0.408,6.053
			c-0.102,1.94-0.568,10.105-1.038,18.146s-0.904,15.977-0.967,17.638c-0.096,2.563-0.551,3.063-3.014,3.319
			C1381.783,1392.464,1377.963,1392.214,1374.889,1391.741z"/>
		<path id="US-CT" fill="#D3D3D3" d="M1943.873,1218.201c0.169-0.695-0.605-3.249-1.725-5.674c-1.118-2.425-1.968-5.298-1.888-6.383
			c0.08-1.086,0.134-3.386,0.118-5.111l-0.025-3.137l10.826-3.214c5.956-1.768,11.354-3.349,11.997-3.514
			c0.919-0.237,6.486,14.146,6.757,17.453c0.026,0.329-2.472,1.523-5.552,2.657c-8.443,3.105-15.196,6.027-16.183,7.005
			C1946.804,1219.665,1943.53,1219.601,1943.873,1218.201z"/>
		<path id="US-DC" fill="#D3D3D3" d="M1889.812,1294.744c-0.953-0.975-0.947-1.581,0.028-2.535c0.977-0.954,1.581-0.947,2.536,0.027
			c0.954,0.978,0.947,1.582-0.028,2.536S1890.767,1295.72,1889.812,1294.744z"/>
		<path id="US-DE" fill="#D3D3D3" d="M1916.704,1291.193c-1.464-4.184-3.49-10.618-4.501-14.299
			c-1.575-5.733-1.643-6.839-0.471-7.722c2.328-1.756,2.849-1.315,3.176,2.679c0.62,7.572,1.647,9.354,6.891,11.947
			c4.688,2.318,10.885,9.093,11.137,12.176c0.076,0.928-1.864,1.524-6.73,2.064l-6.838,0.762L1916.704,1291.193z"/>
		<path id="US-FL" fill="#D3D3D3" d="M1840.654,1533.029c-0.565,0.037-1.167,0.109-1.802,0.21l-4.054,0.646l0.124,5.351
			c0.139,6.093,0.156,6.082-3.161,6.969c-1.828,0.488-2.935,0.065-4.275-1.656c-1.412-1.812-2.633-2.229-5.55-1.929
			c-2.054,0.211-15.234,1.279-29.312,2.367l-25.611,1.972l-0.938-3.027l-0.939-3.059l-25.984,2.785
			c-14.305,1.524-26.899,3.021-27.979,3.324c-1.078,0.304-2.295,0.616-2.702,0.691c-1.217,0.226-0.645,2.575,1.811,7.565
			c1.274,2.59,2.69,5.944,3.15,7.455c0.606,1.996,1.279,2.563,2.492,2.116c0.921-0.338,6.257-1.282,11.838-2.097l10.131-1.488
			l6.048,3.017c3.316,1.647,7.623,3.348,9.591,3.793c2.182,0.493,4.637,2.11,6.265,4.128c2.448,3.034,2.964,3.231,6.214,2.376
			c1.949-0.514,6.97-3.033,11.176-5.587c11.7-7.105,13.823-7.898,17.56-6.485c1.73,0.654,4.338,2.664,5.789,4.449
			c1.45,1.785,6.644,6.338,11.552,10.122c10.273,7.921,10.931,9.111,12.99,23.863c0.865,6.2,2.52,12.774,4.411,17.512
			c1.667,4.169,3.098,8.336,3.174,9.271c0.077,0.938,1.808,2.906,3.839,4.389c2.42,1.768,4.587,4.714,6.31,8.515
			c2.021,4.456,3.585,6.379,6.726,8.229c2.25,1.325,5.484,4.487,7.191,7.03c1.728,2.575,4.336,5.033,5.88,5.57
			c1.525,0.531,5.545,3.629,8.936,6.889c6.379,6.131,14.616,10.752,17.318,9.713c3.877-1.491,9.931-2.401,10.005-1.509
			c0.276,3.386-10.036,12.681-17.287,15.587c-2.138,0.856-4.295,2.074-4.797,2.682c-0.616,0.745-0.442,0.878,0.539,0.457
			c0.8-0.342,3.638-1.538,6.303-2.679c5.419-2.318,13.045-8.52,14.935-12.134c0.683-1.305,1.27-5.699,1.3-9.795
			c0.03-4.095,0.588-8.764,1.253-10.355c0.917-2.198,0.885-6.194-0.173-16.666c-1.329-13.16-1.559-14.065-4.918-19.477
			c-1.936-3.119-5.694-9.152-8.341-13.427c-2.648-4.276-5.462-9.915-6.262-12.531c-2.913-9.527-5.519-14.351-11.368-20.893
			c-9.131-10.213-22.445-33.654-23.009-40.539C1846.82,1534.054,1844.612,1532.765,1840.654,1533.029z M1876.809,1623.475
			c0.334-0.016,0.679,0.011,1.04,0.072c2.623,0.435,2.793,0.743,2.912,5.688c0.137,5.743-0.974,6.724-5.432,4.896
			C1870.178,1632.019,1871.803,1623.711,1876.809,1623.475z"/>
		<path id="US-GA" fill="#D3D3D3" d="M1829.5,1541.075c-1.57-2.108-1.635-2.107-30.707,0.271l-29.134,2.385l-1.146-3.168
			c-0.631-1.742-1.651-3.013-2.267-2.824c-0.616,0.188-1.135,0.167-1.152-0.045c-0.017-0.214-1.065-4.079-2.329-8.589
			c-1.263-4.511-2.421-11.352-2.57-15.201c-0.595-15.188-1.191-18.317-4.243-22.198c-2.717-3.455-4.722-9.562-7.068-21.524
			c-0.479-2.446-2.217-7.947-3.86-12.227c-4.893-12.731-7.419-20.844-6.842-21.973c0.297-0.583,1.533-1.077,2.746-1.099
			c2.085-0.037,14.979-2.05,22.489-3.511c1.901-0.37,7.335-1.276,12.077-2.015l8.62-1.344l-0.608,3.041
			c-0.518,2.588-0.184,3.378,2.238,5.299c1.565,1.241,3.844,2.471,5.064,2.732c1.219,0.262,5.031,3.394,8.471,6.96
			c3.441,3.566,8.7,8.091,11.689,10.056c6.466,4.252,16.804,15.096,20.995,22.025c1.653,2.733,3.806,5.152,4.78,5.376
			c0.977,0.225,2.728,1.798,3.893,3.497c2.906,4.24,7.347,8.18,9.064,8.038c0.917-0.074,1.266,0.522,0.979,1.676
			c-0.246,0.985-1.651,6.406-3.127,12.046c-1.862,7.126-2.541,12.018-2.225,16.043c0.331,4.193,0.115,5.618-0.779,5.161
			c-1.306-0.667-10.218,0.183-12.874,1.226c-1.246,0.49-1.362,1.376-0.568,4.332c0.55,2.043,0.767,4.604,0.482,5.69
			C1831.096,1543.101,1831.002,1543.094,1829.5,1541.075z"/>
		<path id="US-IA" fill="#D3D3D3" d="M1596.401,1298.026c-1.891-1.603-4.267-1.628-27.536-0.31
			c-14.008,0.795-28.17,1.527-31.472,1.63c-3.304,0.103-8.762,0.372-12.132,0.599l-6.127,0.412l-2.324-4.073
			c-1.278-2.241-2.85-6.966-3.493-10.501c-1.152-6.321-2.317-12.162-3.7-18.542c-0.386-1.781-1.974-5.309-3.529-7.841
			c-2.503-4.076-2.961-6.018-3.998-16.948c-0.645-6.788-1.173-12.911-1.172-13.606c0-1.001,9.988-2.027,48.068-4.938l48.069-3.673
			l1.072,3.424c0.59,1.883,1.571,6.093,2.181,9.354c1.222,6.534,4.14,10.873,7.713,11.466c1.251,0.207,2.892,1.541,3.644,2.965
			c0.753,1.423,2.458,3.722,3.79,5.106c4.125,4.289,3.294,15.874-1.35,18.819c-0.912,0.579-3.539,1.524-5.837,2.101
			c-4.117,1.032-4.176,1.11-3.928,5.204c0.919,15.217,0.886,15.409-3.243,18.89
			C1598.509,1299.745,1598.44,1299.752,1596.401,1298.026z"/>
		<path id="US-ID" fill="#D3D3D3" d="M1216.338,1238.239c-2.247-0.482-17.653-3.914-34.236-7.625
			c-16.583-3.709-34.521-7.722-39.86-8.917s-14.459-3.188-20.265-4.431c-12.272-2.626-11.556-0.487-6.477-19.324
			c1.903-7.055,3.574-15.093,3.715-17.862c0.188-3.683,1.006-5.952,3.038-8.433c2.65-3.234,2.727-3.664,1.628-9.139
			c-0.633-3.159-1.191-5.978-1.238-6.264c-0.35-2.108,0.344-3.226,3.052-4.918c3.356-2.098,8.094-7.858,7.97-9.689
			c-0.043-0.623,1.552-3.011,3.541-5.307l3.619-4.174l-2.104-7.854c-3.446-12.861-3.436-20.767,0.042-33.964
			c1.658-6.291,5.225-19.95,7.928-30.354c2.704-10.404,5.104-19.138,5.335-19.41c0.599-0.705,12.678,2.006,12.748,2.862
			c0.032,0.391-0.711,5.234-1.652,10.762c-1.119,6.577-1.479,12.634-1.042,17.522c0.368,4.108,0.747,8.364,0.842,9.457
			c0.095,1.093,2.149,4.988,4.565,8.655c2.415,3.67,4.855,8.213,5.422,10.099c0.99,3.291,4.808,8.775,6.497,9.333
			c1.481,0.49,1.174,4.546-0.584,7.74c-0.955,1.733-1.622,4.581-1.482,6.325c0.186,2.322-0.282,3.392-1.745,3.991
			c-2.258,0.926-3.585,4.529-3.236,8.792c0.198,2.422,0.782,2.983,3.676,3.533c1.892,0.359,4.55,0.346,5.908-0.03
			c2.105-0.585,2.661-0.207,3.783,2.564c0.724,1.786,1.773,5.438,2.331,8.113c0.559,2.675,1.193,5.106,1.41,5.402
			c0.217,0.297,0.792,2.087,1.277,3.979c1.975,7.685,3.454,11.065,5.751,13.141c2.159,1.951,3.003,2.073,7.953,1.146
			c3.678-0.688,7.835-0.655,12.375,0.098c3.759,0.625,7.614,0.822,8.564,0.438c2.778-1.12,4.648,0.466,4.36,3.697
			c-0.142,1.591-1.667,11.811-3.385,22.713c-1.719,10.901-3.759,23.958-4.534,29.015l-1.408,9.195L1216.338,1238.239z"/>
		<path id="US-IL" fill="#D3D3D3" d="M1650.069,1383.859c-1.357-11.218-2.15-12.372-12.996-18.944
			c-7.435-4.504-7.951-5.034-7.658-7.866c0.173-1.67,0.382-5.378,0.463-8.24c0.166-5.759-0.941-7.346-7.17-10.282
			c-3.198-1.509-5.737-4.694-5.965-7.487c-0.062-0.747-3.161-4.132-6.887-7.522c-7.151-6.506-7.711-7.426-9.312-15.274l-1.007-4.935
			l4.508-4.054l4.509-4.052l-0.568-8.758c-0.312-4.816-0.466-8.877-0.344-9.02c0.121-0.145,1.409-0.579,2.86-0.968
			c7.565-2.02,11.154-7.586,11.022-17.09c-0.06-4.263-0.563-5.595-3.376-8.918c-1.817-2.147-3.322-4.12-3.344-4.383
			c-0.021-0.262,5.689-0.814,12.691-1.228c7.003-0.412,18.679-1.192,25.946-1.73l13.214-0.979l0.207,2.526
			c0.114,1.39,0.928,3.468,1.809,4.617c2.958,3.858,4.174,11.729,7.309,47.276c1.714,19.45,3.506,37.199,3.981,39.443
			c0.762,3.589,0.402,4.949-2.993,11.338c-3.361,6.328-3.857,8.18-3.863,14.417c-0.01,8.538-1.58,13.992-4.359,15.132
			c-1.118,0.457-2.425,1.736-2.904,2.842c-0.705,1.621-1.96,2.1-6.491,2.47c-3.828,0.314-6.154,1.033-7.305,2.26
			C1650.456,1386.145,1650.341,1386.11,1650.069,1383.859z"/>
		<path id="US-IN" fill="#D3D3D3" d="M1676.46,1358.96c0.107-2.083,1.749-6.754,3.647-10.382l3.451-6.594l-3.577-39.04
			c-1.966-21.472-3.809-39.811-4.093-40.752c-0.395-1.301,0.13-1.767,2.179-1.935c1.482-0.121,3.116-0.715,3.628-1.318
			c0.56-0.658,9.243-1.872,21.678-3.029c17.797-1.655,20.793-1.72,21.087-0.453c1.837,7.943,9.605,72.904,8.976,75.061
			c-0.242,0.824-1.625,1.603-3.073,1.729c-3.457,0.303-3.845,0.681-8.975,8.747c-5.975,9.394-6.479,9.913-10.037,10.337
			c-1.716,0.203-5.466,2.017-8.336,4.028c-4.652,3.26-5.979,3.702-12.21,4.062c-3.844,0.224-8.211,1.023-9.702,1.778
			C1676.817,1363.37,1676.246,1363.095,1676.46,1358.96z"/>
		<path id="US-KS" fill="#D3D3D3" d="M1532.296,1393.975c-0.119-0.093-4.725-0.103-10.237-0.022
			c-5.511,0.082-10.706,0.042-11.545-0.088c-0.838-0.13-5.811-0.191-11.048-0.137s-10.216,0.026-11.062-0.062
			s-6.041-0.118-11.544-0.065c-5.504,0.054-10.688,0.031-11.522-0.051c-0.835-0.08-5.806-0.122-11.045-0.093
			c-5.24,0.03-10.21-0.013-11.045-0.094c-0.834-0.083-5.805-0.13-11.044-0.105c-5.241,0.026-10.221-0.024-11.066-0.111
			c-0.846-0.086-6.04-0.118-11.544-0.07c-5.504,0.049-10.69,0.01-11.526-0.084c-0.835-0.096-3.122-0.077-5.081,0.041l-3.561,0.215
			l0.737-12.853c0.405-7.069,0.832-14.894,0.948-17.386c0.116-2.493,0.321-5.67,0.454-7.061c0.134-1.391,0.322-4.115,0.419-6.054
			c0.097-1.94,0.383-7.156,0.638-11.591c0.254-4.436,0.537-9.651,0.627-11.591c0.091-1.938,0.282-5.274,0.427-7.413l0.26-3.889
			l6.669,0.022c6.393,0.021,21.894,0.401,29.301,0.721c1.938,0.082,6.461,0.188,10.053,0.235c3.591,0.046,7.662,0.155,9.05,0.242
			c1.387,0.086,5.459,0.205,9.051,0.263c3.593,0.058,7.665,0.171,9.052,0.251c1.385,0.081,5.909,0.185,10.052,0.229
			c4.143,0.044,8.214,0.146,9.048,0.225c0.835,0.08,4.907,0.197,9.052,0.263s8.399,0.207,9.453,0.316
			c1.056,0.11,5.8,0.15,10.543,0.093c7.735-0.094,8.947,0.164,11.758,2.51c3.101,2.585,3.118,2.646,1.586,5.461
			c-1.322,2.43-1.335,3.397-0.083,6.599c0.811,2.071,2.104,3.699,2.887,3.635c0.781-0.063,1.921,0.659,2.531,1.607
			c1.976,3.059,4.839,30.326,4.583,43.628l-0.239,12.401l-2.886,0.017C1533.809,1394.137,1532.414,1394.068,1532.296,1393.975z"/>
		<path id="US-KY" fill="#D3D3D3" d="M1654.106,1393.454c-0.099-2.916,0.188-5.895,0.638-6.621c0.493-0.799,3.15-1.513,6.706-1.804
			c4.233-0.347,6.014-0.902,6.327-1.977c0.241-0.822,1.843-2.486,3.56-3.698c2.454-1.733,3.31-3.303,3.999-7.339
			c0.829-4.851,1.124-5.234,5.32-6.955c2.442-1.001,7.696-2.068,11.675-2.372c6.415-0.488,7.775-0.951,12.022-4.1
			c2.792-2.07,6.131-3.66,8.009-3.812c3.455-0.284,6.734-3.678,12.633-13.074c1.642-2.619,3.117-4.968,3.275-5.221
			c0.16-0.253,2.167-0.869,4.461-1.369l4.171-0.907l-0.086-4.812l-0.086-4.811l3.479,0.265c1.913,0.146,5.36,1.407,7.662,2.804
			c4.845,2.938,11.32,3.645,22.362,2.439c6.535-0.714,7.785-0.566,9.593,1.131c1.398,1.312,2.074,3.09,2.065,5.427
			c-0.018,3.973,2.475,7.941,9.307,14.816l4.544,4.572l-2.286,1.884c-2.668,2.199-3.761,3.516-12.379,14.909
			c-5.599,7.402-6.893,8.569-9.811,8.854c-9.303,0.907-69.602,7.428-73.474,7.944c-2.456,0.327-7.728,0.912-11.714,1.301
			c-5.903,0.574-7.357,1.04-7.822,2.508c-0.672,2.114,0.276,1.844-13.258,3.781l-10.713,1.536L1654.106,1393.454z"/>
		<path id="US-LA" fill="#3993B0" d="M1669.599,1602.933c-1.689-0.412-5.284-1.454-7.987-2.313c-4.439-1.411-5.213-1.398-8.016,0.14
			c-3.483,1.912-5.998,2.752-12.44,4.156c-6.06,1.319-12.428-1.04-18.345-6.799c-2.541-2.474-6.762-5.356-9.376-6.405l-4.754-1.907
			l-2.007,2.182c-3.755,4.081-12.443,4.245-20.87,0.393c-3.417-1.563-17.979-0.598-19.588,1.299
			c-1.994,2.349-2.078,0.496-0.306-6.703c0.967-3.93,1.866-9.186,1.999-11.68c0.428-8.039,0.776-9.967,2.436-13.459
			c1.491-3.138,1.477-3.972-0.177-9.803c-0.994-3.506-3.269-8.964-5.054-12.128c-2.949-5.227-3.395-7.055-4.85-19.921l-1.601-14.167
			l30.47-2.493c23.675-1.938,30.507-2.219,30.638-1.254c0.542,3.972,1.78,8.488,2.973,10.845c1.86,3.678,0.758,8.563-4.971,22.026
			c-5.381,12.646-6.186,19.283-2.467,20.334c1.256,0.355,6.555,0.415,11.773,0.134c8.241-0.442,17.304-0.854,24.597-1.114
			c1.897-0.067,2.227,0.682,3.313,7.55c1.345,8.477,2.234,9.543,10.521,12.602c4.043,1.493,4.422,1.93,4.706,5.41
			c0.194,2.362-0.308,4.442-1.331,5.534c-2.778,2.962-2.111,6.481,1.446,7.625c3.434,1.104,8.451,5.686,8.631,7.882
			c0.063,0.78-0.744,1.489-1.795,1.575c-1.053,0.087-2.494,0.395-3.205,0.685
			C1673.252,1603.447,1671.289,1603.347,1669.599,1602.933z"/>
		<g id="US-MA">
			<path fill="#92B8C4" d="M1993.384,1198.581c0.105-0.975,1.077-1.845,2.158-1.934s2.182,0.612,2.444,1.557
				c0.359,1.285-0.183,1.77-2.158,1.933C1993.852,1200.298,1993.238,1199.907,1993.384,1198.581z"/>
			<path fill="#92B8C4" d="M2004.207,1195.762c-1.883-0.583,0.168-3.349,2.633-3.551c2.147-0.175,2.491,0.866,0.904,2.735
				C2006.57,1196.33,2006.27,1196.401,2004.207,1195.762z"/>
			<path fill="#92B8C4" d="M1981.197,1191.292c-2.385-3.111-4.851-5.649-5.479-5.641c-0.629,0.009-1.896-0.066-2.815-0.167
				c-1.339-0.148-21.188,5.304-30.839,8.471c-1.863,0.612-2.087,0.194-2.688-5.024c-0.361-3.13-1.009-6.904-1.438-8.388
				c-0.743-2.558-0.589-2.715,3.026-3.081c2.096-0.213,4.917-0.663,6.27-1.002c1.352-0.338,7.053-1.739,12.671-3.114
				c9.767-2.391,10.353-2.68,13.372-6.625c2.433-3.184,3.899-4.188,6.406-4.394c4.785-0.392,5.825,1.21,4.577,7.045
				c-0.949,4.44-0.87,5.082,0.868,7.054c1.052,1.192,3.68,3.074,5.84,4.184s3.947,2.263,3.972,2.562
				c0.104,1.266,6.258,3.435,7.733,2.726c1.963-0.943,0.838-5.295-1.807-6.993c-1.555-0.998-1.517-1.13,0.382-1.285
				c1.228-0.101,3.144,1.044,4.56,2.724c2.423,2.874,2.428,2.92,0.736,5.62c-0.942,1.507-3.852,3.654-6.509,4.809
				c-2.642,1.147-6.089,2.935-7.66,3.97C1987.528,1197.942,1985.913,1197.443,1981.197,1191.292z"/>
		</g>
		<path id="US-MD" fill="#D3D3D3" d="M1919.162,1310.117c-0.977-1.75-1.926-2.284-3.236-1.823
			c-3.631,1.272-8.228-5.596-9.091-13.582c-0.207-1.915-0.789-5.147-1.291-7.184c-0.571-2.312-0.502-4.29,0.184-5.269
			c0.604-0.864,0.773-2.245,0.377-3.07c-1.027-2.136-4.17,0.069-5.856,4.108c-1.803,4.317,0.545,19.758,3.813,25.075l2.284,3.717
			l-2.388-0.472c-1.314-0.259-3.638-0.639-5.164-0.845c-3.812-0.511-8.127-4.114-8.362-6.979c-0.106-1.306,1.195-4.256,2.891-6.556
			l3.084-4.183l-2.778-2.493l-2.779-2.494l-2.749,2.728c-2.957,2.933-6.177,3.064-8.234,0.339c-0.619-0.82-2.744-2.861-4.723-4.536
			c-3.052-2.585-4.3-2.987-8.244-2.655c-6.595,0.557-12.887,3.301-18.491,8.065c-2.663,2.264-5.085,3.911-5.381,3.659
			c-0.297-0.253-0.921-2-1.387-3.883c-0.845-3.413-0.834-3.427,3.453-4.311c2.364-0.487,12.256-2.963,21.981-5.5
			c18.23-4.756,18.615-4.854,26.04-6.706c2.434-0.606,5.308-1.356,6.385-1.665c1.079-0.311,3.312-0.904,4.96-1.321l2.998-0.759
			l2.492,9.105c1.371,5.01,3.637,11.837,5.036,15.171l2.543,6.063l7.863-0.645l7.864-0.644l0.12,4.442
			c0.066,2.443-0.078,4.649-0.322,4.901c-0.244,0.254-3.159,0.959-6.477,1.566
			C1920.793,1312.545,1920.485,1312.488,1919.162,1310.117z"/>
		<path id="US-ME" fill="#D3D3D3" d="M1975.55,1148.074c-3.734-4.143-12.887-26.025-16.418-39.249
			c-0.361-1.35-0.942-3.184-1.292-4.074c-0.349-0.891-0.221-1.926,0.288-2.299c1.496-1.104,4.358-12.088,4.427-16.984
			c0.033-2.486,0.297-7.022,0.586-10.081c0.288-3.059,0.578-8.228,0.643-11.487c0.064-3.259,0.995-9.655,2.068-14.216l1.949-8.29
			l6.72-1.225c3.693-0.674,7.222-1.667,7.838-2.209c0.615-0.54,2.135-0.982,3.376-0.98c1.242,0.001,2.919,0.004,3.729,0.007
			c0.809,0.003,3.113,1.226,5.123,2.719c2.975,2.209,3.699,3.407,3.901,6.453c0.62,9.307,9.266,26.61,14.181,28.381
			c1.405,0.506,2.595,1.419,2.645,2.028s1.563,2.625,3.365,4.478c2.434,2.505,4.566,3.57,8.315,4.151
			c6.252,0.969,8.075,2.548,6.664,5.774c-2.369,5.414-6.957,10.312-11.23,11.99c-3.268,1.282-6.478,4.084-12.617,11.011
			c-4.527,5.111-10.126,11.001-12.438,13.089c-2.312,2.09-5.821,6.113-7.797,8.942c-1.977,2.83-5.163,7.327-7.084,9.992
			c-1.921,2.667-3.588,4.983-3.704,5.146S1977.214,1149.924,1975.55,1148.074z"/>
		<g id="US-MI">
			<path fill="#D3D3D3" d="M1689.644,1253.295c-0.052-0.629,0.524-1.872,1.279-2.762c0.755-0.889,1.284-2.697,1.177-4.016
				c-0.108-1.32,0.526-5.415,1.41-9.101c1.31-5.457,1.358-7.148,0.257-9.119c-0.742-1.33-1.514-4.416-1.713-6.857
				c-0.2-2.44-0.735-4.407-1.189-4.37c-0.455,0.037-2.103-2.162-3.661-4.887c-3.299-5.767-4.207-15.01-1.893-19.263
				c0.762-1.399,1.407-4.636,1.438-7.192c0.028-2.556,0.659-5.362,1.4-6.234c0.739-0.873,1.262-2.603,1.16-3.847
				c-0.119-1.443,0.681-2.744,2.214-3.599c1.319-0.737,2.361-1.798,2.315-2.357c-0.179-2.183,1.919-1.032,2.752,1.509
				c1.227,3.749,1.584,4.125,3.196,3.349c0.779-0.373,1.333-1.867,1.232-3.316c-0.101-1.45,0.349-3.472,0.999-4.49
				c0.649-1.021,0.886-2.922,0.523-4.226c-0.528-1.903-0.201-2.473,1.659-2.893c1.961-0.443,2.287-1.137,2.133-4.522
				c-0.413-9.029-0.74-8.333,3.81-8.098c2.611,0.136,4.361-0.234,4.754-1.003c0.413-0.812,2.118-0.009,5.114,2.408
				c2.49,2.008,6.288,3.953,8.52,4.362c7,1.283,10.009,5,11.821,14.597c1.766,9.353,1.713,11.095-0.439,14.71
				c-1.625,2.728-2.188,4.569-2.244,7.332c-0.008,0.413-0.687,0.809-1.509,0.876c-1.034,0.085-1.41,1.161-1.22,3.489
				c0.151,1.851,0.993,3.869,1.872,4.484c1.888,1.322,2.536,0.842,9.653-7.178l4.783-5.389l3.686,3.417
				c3.544,3.286,6.156,8.311,7.574,14.57c0.368,1.625,1.125,4.048,1.68,5.382c1.723,4.126-0.407,11.069-5.038,16.423
				c-2.291,2.648-4.114,5.41-4.056,6.137c0.06,0.728-0.522,2.48-1.293,3.897c-0.771,1.415-1.267,4.6-1.103,7.077l0.297,4.505
				l-5.549,0.531c-3.05,0.291-6.429,0.794-7.506,1.115c-1.786,0.533-15.341,1.782-21.41,1.974
				c-1.377,0.044-8.419,0.897-15.647,1.897C1693.229,1253.955,1689.713,1254.134,1689.644,1253.295z"/>
			<path fill="#D3D3D3" d="M1658.99,1159.422c-4.02-5.46-5.63-6.807-10.145-8.479c-6.999-2.594-18.955-5.69-27.796-7.199
				c-6.038-1.03-7.348-1.646-9.117-4.282c-2.012-2.999-2.019-3.135-0.248-5.22c1-1.18,2.743-2.22,3.874-2.312
				c3.693-0.302,12.06-4.231,15.252-7.163c7.702-7.072,15.989-12.682,17.556-11.883c0.479,0.245-0.007,1.175-1.081,2.067
				c-2.58,2.141-4.563,7.025-3.461,8.521c0.897,1.217,3.016,1.671,6.938,1.486c1.218-0.057,4.655,1.729,7.639,3.972
				c6.135,4.611,6.978,4.599,20.535-0.334c13.313-4.843,24.95-5.443,26.899-1.387c0.404,0.841,1.387,1.142,2.39,0.733
				c2.825-1.149,12.208,2.901,14.239,6.147c2.345,3.751,2.363,4.685,0.104,5.611c-4.289,1.758-6.938,2.287-16.861,3.374
				c-5.743,0.629-11.663,1.752-13.155,2.495c-1.492,0.742-4.618,1.506-6.946,1.696c-3.548,0.29-4.552,0.859-6.199,3.518
				c-1.182,1.906-2.87,3.245-4.233,3.356c-2.074,0.17-9.155,6.619-9.024,8.22c0.031,0.377-0.491,1.33-1.161,2.119
				C1663.974,1165.673,1662.967,1164.825,1658.99,1159.422z"/>
		</g>
		<path id="US-MN" fill="#D3D3D3" d="M1501.746,1217.512c-0.592-13.794-0.962-28.775-0.852-34.479
			c0.085-4.277-0.518-7.56-2.143-11.678c-2.154-5.462-2.188-5.873-0.758-8.823c1.311-2.7,1.285-4.707-0.203-15.723
			c-0.938-6.945-2.033-14.632-2.434-17.082c-0.399-2.451-1.885-14.812-3.299-27.471l-2.57-23.015l6.902-0.186
			c21.952-0.592,22.498-0.643,23.841-2.226c0.732-0.86,1.258-2.43,1.172-3.488c-0.18-2.192,0.204-2.347,2.907-1.173
			c1.374,0.597,2.279,2.476,3.11,6.459c1.387,6.634,3.23,8.56,8.704,9.086c2.225,0.213,4.795,0.957,5.711,1.651
			c1.132,0.859,4.645,1.084,10.932,0.703c8.958-0.545,9.394-0.464,13.184,2.428c2.156,1.645,4.595,2.955,5.419,2.911
			c0.824-0.046,3.617,1.113,6.206,2.575c4.156,2.346,5.468,2.575,11.197,1.96c6.61-0.711,19.13-0.294,22.432,0.746
			c1.651,0.52,1.6,0.82-0.546,3.161c-1.304,1.423-3.355,2.678-4.56,2.788c-4.108,0.378-10.005,4.489-11.976,8.352
			c-1.06,2.076-3.175,4.657-4.701,5.736c-1.527,1.079-2.747,2.313-2.713,2.743c0.035,0.43-0.557,0.833-1.316,0.895
			c-0.759,0.062-1.972,1.201-2.695,2.529c-0.723,1.329-3.236,4.131-5.583,6.227c-4.908,4.381-5.239,5.114-5.372,11.928
			c-0.054,2.763-0.175,5.933-0.267,7.045c-0.093,1.11-0.184,2.258-0.2,2.547c-0.019,0.29-1.565,1.522-3.44,2.739
			c-3.836,2.489-5.916,6.542-4.855,9.456c1.089,2.995,2.021,15.613,1.342,18.185c-0.459,1.735,0.002,2.791,1.903,4.359
			c6.467,5.335,21.667,16.7,23.774,17.777c2.199,1.122,5.034,5.758,5.268,8.611c0.082,0.998-9.5,1.978-46.569,4.757l-46.673,3.499
			L1501.746,1217.512z"/>
		<path id="US-MO" fill="#92B8C4" d="M1638.644,1414.736c-1.422-0.513-2.703-0.985-2.847-1.049
			c-0.144-0.064-0.043-2.228,0.224-4.806c0.84-8.121,3.162-7.926-47.921-4.043l-44.804,3.406l-0.348-2.479
			c-1.642-11.756-1.919-19.932-0.916-27.016c0.369-2.6-1.426-23.493-2.781-32.381c-0.415-2.726-0.874-5.947-1.019-7.157
			c-0.146-1.212-2.004-3.679-4.128-5.481c-3.63-3.08-3.785-3.421-2.565-5.662c2.459-4.52,1.856-7.201-2.319-10.302
			c-2.583-1.919-4.342-4.279-5.314-7.135c-0.8-2.348-1.771-4.929-2.16-5.737c-0.594-1.235,0.294-1.501,5.615-1.681
			c3.476-0.116,19.575-0.986,35.776-1.933s30.248-1.378,31.213-0.959c0.966,0.418,1.779,1.548,1.806,2.512
			c0.056,1.931,1.794,10.221,2.947,14.055c0.406,1.347,3.628,4.921,7.162,7.942c4.116,3.521,6.901,6.802,7.752,9.132
			c0.833,2.286,2.731,4.557,5.104,6.104c8.752,5.709,7.938,4.238,7.157,12.968c-0.386,4.303-0.419,8.167-0.074,8.586
			c0.346,0.417,4.326,3.076,8.847,5.909s8.667,5.855,9.217,6.72c0.549,0.863,1.525,4.22,2.168,7.459
			c1.303,6.546,1.719,7.419,3.479,7.275c0.82-0.067,1.209,1.284,1.2,4.166c-0.012,3.26-0.703,4.991-2.938,7.346
			c-2.25,2.37-3.053,4.396-3.485,8.805C1644.089,1415.443,1643.089,1416.341,1638.644,1414.736z"/>
		<path id="US-MS" fill="#D3D3D3" d="M1663.056,1570.087c-3.961-2.809-4.079-3.054-5.024-10.476c-0.533-4.181-1.227-7.95-1.54-8.376
			c-0.315-0.426-6.561-0.437-13.878-0.022c-7.319,0.413-15.11,0.777-17.315,0.808c-2.205,0.032-5.021,0.091-6.261,0.134
			c-3.642,0.123-3.25-4.748,1.165-14.487c2.147-4.736,4.753-11.718,5.793-15.515c1.766-6.457,1.771-7.089,0.095-9.77
			c-1.231-1.969-2.305-6.995-3.425-16.048c-1.934-15.597-1.326-19.783,4.115-28.363c2.188-3.452,3.778-7.37,3.959-9.751
			c0.372-4.922,0.972-6.311,4.361-10.108l2.681-3.005l21.55-2.337l21.55-2.339l0.225,2.84c0.122,1.562,0.119,6.687-0.008,11.388
			c-0.127,4.7-0.241,11.934-0.252,16.073c-0.013,4.141-0.091,8.661-0.174,10.048c-0.444,7.372,1.027,34.741,3.154,58.688
			l2.412,27.144l-2.261,0.243c-8.577,0.922-14.175,2.438-15.458,4.188C1667.18,1572.871,1666.918,1572.825,1663.056,1570.087z"/>
		<path id="US-MT" fill="#D3D3D3" d="M1358.205,1176.665c-0.247-0.203-1.813-0.493-3.481-0.645
			c-3.233-0.292-20.155-2.381-52.2-6.448c-10.874-1.379-28.209-3.559-38.523-4.843c-10.314-1.285-20.811-2.643-23.324-3.019
			c-6.751-1.007-6.872-0.946-8.659,4.37c-1.627,4.835-1.708,4.903-6.059,5.112c-2.426,0.116-6.047-0.184-8.048-0.666
			c-2.001-0.484-7.047-0.638-11.213-0.34c-9.419,0.673-9.571,0.51-13.656-14.713c-4.009-14.938-5.678-19.584-7.034-19.58
			c-0.618,0.001-3.305,0.258-5.973,0.57c-4.827,0.564-4.847,0.554-4.381-2.25c0.434-2.622,2.638-5.521,4.359-5.734
			c0.409-0.052,0.613-1.707,0.451-3.677c-0.161-1.972,0.484-4.89,1.434-6.484c2.677-4.496,2.178-9.219-1.31-12.413
			c-1.615-1.479-3.859-5.105-4.987-8.06c-1.127-2.954-3.533-7.392-5.345-9.86c-5.053-6.884-6.288-17.023-3.971-32.624l1.766-11.9
			l12.395,2.89c11.566,2.696,59.598,11.926,66.38,12.755c1.672,0.204,8.31,1.319,14.751,2.475
			c10.032,1.803,76.191,11.343,89.162,12.858c2.406,0.28,4.695,0.664,5.087,0.852c0.392,0.187,3.64,0.404,7.215,0.481
			c3.576,0.079,6.637,0.258,6.802,0.398c0.165,0.141,0.064,2.72-0.224,5.735c-0.558,5.823-0.842,9.151-1.318,15.455
			c-0.163,2.152-0.404,4.881-0.535,6.063c-0.227,2.032-0.417,4.161-1.006,11.242c-0.913,10.979-5.016,57.101-5.284,59.379
			C1361.194,1176.481,1359.561,1177.786,1358.205,1176.665z"/>
		<path id="US-NC" fill="#D3D3D3" d="M1892.904,1432.749c-2.003-1.248-5.04-2.822-6.752-3.499
			c-1.711-0.677-7.852-4.432-13.646-8.347l-10.534-7.115l-11.224,1.332c-9.581,1.138-11.578,1.104-13.645-0.227
			c-4.001-2.578-6.063-2.789-17.123-1.752c-11.031,1.035-18.581,3.308-27.617,8.316c-4.954,2.745-5.988,3.013-19.809,5.129
			c-4.905,0.75-9.797,1.654-10.871,2.009c-1.76,0.579-1.74,0.446,0.19-1.327c1.18-1.085,3.869-4.079,5.978-6.653
			c2.107-2.576,5.981-6.005,8.608-7.621s6.857-5.083,9.403-7.704c2.544-2.621,8.071-6.8,12.283-9.284
			c7.828-4.621,12.064-8.855,12.941-12.94c0.707-3.285,2.59-4.153,12.499-5.763c4.836-0.784,9.731-1.65,10.878-1.923
			c1.148-0.272,4.686-1.011,7.864-1.641c3.177-0.632,6.727-1.396,7.888-1.696c1.16-0.303,10.538-2.386,20.84-4.629
			s19.613-4.32,20.692-4.614c1.079-0.296,3.998-1.004,6.484-1.575c6.994-1.605,20.329-5.215,27.034-7.318
			c1.619-0.507,2.429,0.011,3.607,2.307c1.412,2.749,1.343,3.138-0.979,5.487l-2.499,2.529l4.986,0.275
			c3.72,0.204,5.703,0.957,7.808,2.963c3.697,3.523,3.683,4.787-0.121,9.664c-1.749,2.243-3.369,4.884-3.601,5.869
			c-0.363,1.547-4.651,2.789-9.31,2.697c-0.313-0.006-0.377,1.977-0.141,4.406l0.43,4.417l3.737-0.305
			c4.314-0.351,4.696,0.564,1.873,4.5c-4.024,5.611-5.591,6.844-9.068,7.128c-3.056,0.25-4.36,1.36-10.612,9.023
			c-6.229,7.639-7.09,9.195-6.831,12.362c0.269,3.277-0.072,3.821-3.556,5.682c-2.119,1.131-3.986,2.068-4.149,2.081
			C1896.68,1435.007,1894.908,1433.997,1892.904,1432.749z"/>
		<path id="US-ND" fill="#D3D3D3" d="M1489.034,1158.8c-0.158-0.12-3.001-0.283-6.318-0.363c-3.316-0.081-7.169-0.252-8.56-0.381
			c-1.39-0.131-4.566-0.318-7.058-0.419c-2.491-0.1-6.116-0.257-8.055-0.347c-5.667-0.266-10.196-0.459-16.11-0.689
			c-3.045-0.117-6.688-0.301-8.098-0.404c-1.408-0.104-11.606-0.591-22.663-1.084c-11.057-0.492-21.465-0.996-23.132-1.121
			c-4.249-0.316-9.088-0.539-16.189-0.739l-6.109-0.174l1.415-16.311c0.778-8.971,1.558-17.789,1.732-19.597
			c0.175-1.808,0.421-4.537,0.546-6.065s0.814-9.66,1.531-18.07c0.717-8.411,1.276-15.623,1.243-16.024
			c-0.052-0.639,12.888-1.008,17.757-0.506c0.98,0.102,4.946,0.229,8.813,0.286s8.166,0.167,9.553,0.25
			c1.386,0.08,5.234,0.211,8.552,0.29c3.317,0.078,7.618,0.211,9.556,0.294c6.278,0.27,29.546,1.072,34.714,1.198
			c2.765,0.067,6.611,0.178,8.548,0.247c1.938,0.068,6.013,0.21,9.057,0.315c3.044,0.106,5.822,0.584,6.177,1.062
			c0.354,0.478,1.354,8.14,2.222,17.027c0.869,8.887,1.858,17.714,2.2,19.618c0.536,2.998,3.775,27.528,4.979,37.719
			c0.387,3.265,0.215,3.5-2.803,3.842C1490.766,1158.856,1489.191,1158.92,1489.034,1158.8z"/>
		<path id="US-NE" fill="#D3D3D3" d="M1511.573,1314.864c-3.868-0.069-9.747-0.176-13.063-0.236
			c-3.315-0.061-12.139-0.283-19.605-0.491c-7.467-0.21-15.837-0.426-18.602-0.482c-2.763-0.055-6.61-0.166-8.548-0.249
			c-4.495-0.192-9.963-0.343-23.13-0.636c-5.805-0.13-11.689-0.313-13.076-0.407c-2.164-0.147-16.638-0.424-19.596-0.375
			c-1.396,0.022-1.653-8.223-0.659-21.06c0.401-5.18,1.925-4.824-32.283-7.528c-1.389-0.108-3.688-0.337-5.109-0.505l-2.585-0.305
			l2.03-23.961c1.118-13.178,2.145-24.139,2.282-24.359c0.204-0.322,23.499,0.536,37.098,1.367
			c1.665,0.103,8.914,0.423,16.112,0.713c7.198,0.289,14.222,0.602,15.608,0.692c1.388,0.092,4.969,0.26,7.958,0.374
			c2.991,0.116,6.166,0.289,7.056,0.386s4.559,0.239,8.151,0.318c9.875,0.216,13.443,1.109,16.951,4.247
			c3.119,2.79,3.358,2.83,9.928,1.719c5.67-0.962,7.416-0.859,11.09,0.653c2.397,0.987,5.505,2.004,6.905,2.258
			c2.15,0.394,2.612,1.082,2.969,4.425c0.232,2.179,1.759,6.153,3.392,8.835c1.669,2.739,3.5,7.62,4.182,11.144
			c0.666,3.448,1.396,6.932,1.621,7.74c0.225,0.811,0.995,4.585,1.712,8.389c0.813,4.317,2.423,8.711,4.283,11.69
			c2.249,3.6,7.175,13.939,7.447,15.632C1522.124,1315.053,1522.053,1315.053,1511.573,1314.864z"/>
		<path id="US-NH" fill="#D3D3D3" d="M1953.043,1170.811c-1.252-0.131-2.33-0.538-2.394-0.909c-0.064-0.37-1-8.635-2.081-18.368
			l-1.964-17.693l3.254-4.254c2.328-3.042,3.059-4.873,2.567-6.435c-3.309-10.516-3.339-10.792-1.524-13.84
			c2.708-4.546,3.939-4.146,5.397,1.752c0.999,4.043,4.476,13.57,9.448,25.898c3.266,8.097,8.036,15.124,11.435,16.841
			c0.75,0.38,1.459,1.837,1.574,3.239c0.157,1.924-0.194,2.431-1.433,2.068c-1.083-0.316-3.045,1.152-5.785,4.338
			c-3.319,3.853-5.058,5.016-8.71,5.817c-2.509,0.552-5.225,1.178-6.035,1.392
			C1955.983,1170.872,1954.296,1170.941,1953.043,1170.811z"/>
		<path id="US-NJ" fill="#D3D3D3" d="M1925.953,1281.97c-5.692-2.259-7.664-4.826-7.947-10.342
			c-0.123-2.422-0.434-4.897-0.688-5.504s1.69-3.775,4.321-7.042c2.629-3.267,4.744-6.388,4.699-6.936
			c-0.044-0.549-2-2.276-4.346-3.84c-5.284-3.525-7.065-6.044-5.676-8.027c1.025-1.463,1.212-2.717,1.58-10.636
			c0.115-2.465,0.543-4.873,0.949-5.353c1.111-1.308,15.71,2.635,17.852,4.822c1.343,1.371,1.679,2.556,1.197,4.221
			c-0.78,2.695,0.66,8.515,3.392,13.7c1.057,2.006,1.817,4.878,1.69,6.383c-0.128,1.505-0.307,4.097-0.397,5.76
			c-0.277,5.049-6.607,20.652-9.197,22.669C1930.482,1284.107,1931.298,1284.093,1925.953,1281.97z"/>
		<path id="US-NM" fill="#D3D3D3" d="M1345.929,1522.14c-5.564-0.563-11.708-1.147-13.651-1.3
			c-5.238-0.41-26.245-2.337-30.328-2.781c-1.949-0.212-8.03-0.038-13.514,0.388l-9.97,0.771l-0.091,2.768
			c-0.106,3.199-1.025,3.419-8.394,2.014c-2.89-0.552-8.191-1.043-11.782-1.092s-7.559-0.258-8.817-0.464
			c-4.471-0.729-7.039,0.992-7.962,5.335c-0.843,3.964-0.988,4.085-5.328,4.44c-5.702,0.466-12.324-0.93-12.463-2.627
			c-0.11-1.346,4.101-32.044,7.637-55.674c1.087-7.264,2.086-14.276,2.221-15.586c0.135-1.309,0.7-5.419,1.255-9.133
			c0.555-3.714,1.115-7.664,1.242-8.778c0.127-1.114,2.063-14.817,4.302-30.452l4.071-28.427l2.879-0.165
			c1.583-0.091,4.472-0.004,6.418,0.19c11.859,1.187,57.449,6.163,58.719,6.41c0.841,0.164,3.118,0.401,5.06,0.529
			c4.647,0.304,39.631,4.125,45.837,5.006c4.706,0.668,4.839,0.78,4.58,3.864c-0.146,1.746-0.354,4.312-0.46,5.7
			c-0.105,1.389-0.334,4.116-0.507,6.062c-0.471,5.308-0.769,8.92-1.332,16.162c-0.621,7.981-0.841,10.695-1.195,14.686
			c-0.148,1.689-1.62,19.645-3.269,39.899c-3.75,46.078-3.484,43.412-4.328,43.339
			C1356.368,1523.192,1351.494,1522.703,1345.929,1522.14z"/>
		<path id="US-NV" fill="#D3D3D3" d="M1112.851,1399.549c-2.046-3.266-6.206-9.795-9.244-14.514
			c-3.039-4.718-9.327-14.587-13.975-21.933c-4.648-7.346-8.814-13.777-9.256-14.293c-0.442-0.515-4.053-6.09-8.025-12.387
			c-3.971-6.297-8.766-13.806-10.653-16.686c-1.889-2.881-5.761-8.885-8.605-13.344c-2.844-4.457-7.252-11.32-9.793-15.251
			c-7.8-12.062-7.963-9.148,2.799-49.748c5.241-19.768,9.898-36.377,10.351-36.909c0.825-0.973,9.985,1.22,38.483,9.206
			c7.908,2.216,21.736,5.673,30.729,7.682c8.994,2.01,21.352,4.768,27.461,6.13c6.111,1.363,11.271,2.615,11.47,2.784
			c0.307,0.261-23.213,117.09-25.315,125.742c-0.411,1.688-0.851,4.209-0.979,5.599c-0.127,1.39-1.262,5.998-2.521,10.24
			c-2.432,8.188-2.045,7.88-9.331,7.474c-5.701-0.318-9.558,8.271-8.799,19.595
			C1118.106,1405.796,1116.864,1405.954,1112.851,1399.549z"/>
		<path id="US-NY" fill="#5DA2B8" d="M1941.779,1236.308c-0.278-0.607-0.408-2.501-0.289-4.208
			c0.347-4.969-3.316-7.49-14.864-10.233c-10.328-2.452-11.425-3.103-20.672-12.229l-4.096-4.043l-16.678,4.004
			c-9.174,2.203-17.784,4.287-19.136,4.633s-11.313,2.751-22.138,5.345c-10.824,2.595-20.392,4.996-21.261,5.338
			c-1.037,0.406-1.838-0.111-2.328-1.507c-0.741-2.113,1.776-6.324,9.772-16.341c1.626-2.039,2.92-4.155,2.876-4.703
			c-0.046-0.548-1.384-3.117-2.976-5.709c-3.431-5.586-3.644-6.715-1.321-6.947c0.958-0.097,2.5-0.856,3.431-1.688
			c1.221-1.094,5.545-1.867,15.621-2.794c15.149-1.393,16.808-1.887,21.293-6.335c4.755-4.716,5.678-8.895,3.476-15.749
			l-1.826-5.687l5.277-7.218c2.902-3.971,6.136-8.694,7.184-10.496c1.05-1.803,4.132-5.378,6.85-7.946l4.943-4.667l8.296-0.494
			c4.563-0.272,9.238-0.897,10.39-1.393c1.768-0.757,2.297-0.398,3.398,2.296c2.006,4.908,3.036,9.447,3.889,17.126
			c0.659,5.949,1.216,7.47,3.621,9.895c5.557,5.604,11.698,27.521,12.227,43.628c0.232,7.091,0.868,11.628,2.056,14.647
			c0.946,2.406,1.826,5.607,1.956,7.114c0.129,1.508,0.671,2.704,1.205,2.661c0.622-0.052,0.709,0.834,0.24,2.452
			c-0.463,1.599-0.36,2.723,0.274,3.047c0.554,0.282,0.974,0.111,0.934-0.381c-0.103-1.252,4.536-3.751,8.649-4.66
			c1.896-0.418,4.712-1.875,6.257-3.234c4.125-3.634,9.225-5.699,10.343-4.188c0.556,0.753-0.046,2.164-1.628,3.817
			c-1.38,1.442-3.979,4.252-5.771,6.245C1957.463,1229.913,1942.566,1238.026,1941.779,1236.308z"/>
		<path id="US-OH" fill="#92B8C4" d="M1780.549,1327.65c-2.028-2.08-2.608-2.138-10.168-1c-10.039,1.513-18.058,0.57-21.928-2.575
			c-1.934-1.569-4.41-2.393-7.491-2.486c-4.507-0.138-4.611-0.217-4.967-3.743c-0.201-1.981-0.832-7.178-1.401-11.544
			c-0.572-4.368-1.73-13.382-2.577-20.03c-0.846-6.648-2.177-16.585-2.957-22.082c-1.137-8.004-1.153-10.036-0.08-10.205
			c0.736-0.113,2.451-0.412,3.81-0.662c1.359-0.251,6.93-1.157,12.378-2.013c5.448-0.854,10.127-1.603,10.399-1.661
			c0.271-0.057,3.255,0.939,6.632,2.217c6.538,2.471,12.036,2.477,14.514,0.014c0.82-0.814,3.483-2.407,5.919-3.538
			c2.436-1.132,5.225-2.906,6.199-3.947c5.99-6.399,15.278-13.435,15.591-11.811c2.986,15.543,4.667,38.531,3.956,54.134
			c-0.038,0.832-0.743,3.979-1.567,6.994c-1.216,4.45-2.262,6.021-5.548,8.325c-4.65,3.262-7.173,7.044-7.785,11.671
			c-0.331,2.505-1.073,3.429-3.3,4.112c-2.094,0.644-2.962,1.617-3.196,3.588c-0.427,3.568-2.089,7.637-3.307,8.088
			C1783.138,1329.693,1781.732,1328.862,1780.549,1327.65z"/>
		<path id="US-OK" fill="#2E8EAD" d="M1538.085,1480.28c-4.498-1.987-8.69-3.142-10.778-2.967
			c-1.88,0.159-10.573,1.128-19.318,2.153c-13.44,1.575-16.616,1.66-20.523,0.549c-2.542-0.724-6.213-1.426-8.154-1.56
			c-2.113-0.147-5.394-1.63-8.164-3.692c-3.491-2.6-5.79-3.491-9.327-3.622c-9.42-0.351-13.799-1.434-16.724-4.136
			c-1.708-1.576-5.273-3.214-8.693-3.992l-5.799-1.318l0.15-5.069c0.085-2.788,0.149-8.229,0.146-12.092
			c-0.005-3.862,0.058-8.607,0.139-10.546c0.08-1.938,0.112-7.133,0.071-11.544c-0.043-4.412,0.053-9.229,0.21-10.708
			c0.329-3.079-0.364-3.611-5.081-3.906c-5.477-0.343-33.842-1.711-43.684-2.107c-12.618-0.509-11.926-0.173-11.627-5.634
			c0.141-2.579,0.363-4.813,0.492-4.967c0.129-0.152,3.419,0.061,7.309,0.474c3.89,0.413,10.683,0.743,15.097,0.734
			c4.415-0.01,10.06,0.01,12.545,0.042c2.486,0.031,7.455,0.072,11.044,0.091c3.589,0.018,8.56,0.063,11.046,0.102
			c2.485,0.038,7.456,0.088,11.045,0.109s8.56,0.064,11.045,0.096c2.485,0.032,7.905,0.047,12.043,0.033s9.107,0.025,11.044,0.087
			c1.937,0.062,6.907,0.105,11.045,0.1c4.138-0.007,9.108,0.037,11.045,0.098s7.356,0.078,12.043,0.04
			c4.688-0.039,9.657-0.004,11.043,0.078c1.387,0.083,6.358,0.142,11.048,0.131c4.689-0.01,8.59,0.042,8.666,0.117
			c0.554,0.535,3.903,29.477,4.676,40.398c1.877,26.534,2.932,45,2.59,45.337C1545.602,1483.378,1542.133,1482.068,1538.085,1480.28
			z"/>
		<path id="US-OR" fill="#D3D3D3" d="M1080.278,1206.282c-14.678-4.031-31.539-8.691-37.47-10.358
			c-16.322-4.582-56.728-15.575-64.65-17.59c-2.536-0.644-4.778-1.288-4.983-1.431c-0.205-0.142-0.018-1.784,0.416-3.65
			s0.845-5.243,0.915-7.504c0.305-9.805,2.191-14.901,8.584-23.19c3.407-4.418,7.828-11.327,9.824-15.353
			c4.114-8.301,20.215-48.73,20.078-50.414c-0.054-0.657,0.638-0.871,1.712-0.532c0.992,0.314,3.265,0.867,5.053,1.229
			c3.146,0.637,8.602,5.111,9.106,7.47c0.136,0.636,0.388,1.598,0.561,2.136c0.171,0.537,0.495,2.569,0.718,4.518
			c0.578,5.053,3.431,7.147,10.947,8.041c3.544,0.421,10.395,2.136,15.222,3.809c4.827,1.673,10.823,3.211,13.323,3.413
			c2.5,0.204,5.228,0.435,6.062,0.513c0.834,0.077,5.984,0.097,11.444,0.045c11.416-0.112,14.44,0.377,32.542,5.25
			c7.284,1.962,13.322,3.56,13.418,3.551c0.097-0.007,0.287,0.542,0.423,1.221c0.137,0.678,0.996,3.985,1.908,7.348l1.658,6.114
			l-3.294,4.307c-1.812,2.369-3.263,4.693-3.224,5.165c0.127,1.551-4.855,7.332-7.911,9.179c-3.559,2.151-4.187,4.875-2.633,11.439
			c1.585,6.699,1.594,6.638-1.406,9.911c-2.055,2.243-2.676,4.018-2.688,7.681c-0.014,4.487-7.391,34.982-8.468,35.003
			C1107.19,1213.607,1094.955,1210.312,1080.278,1206.282z"/>
		<path id="US-PA" fill="#D3D3D3" d="M1819.024,1287.161c-0.602-0.95-1.959-5.044-3.012-9.097c-2.144-8.235-2.292-8.739-2.677-9.062
			c-0.485-0.407-1.06-3.931-2.938-18.069c-1.017-7.644-2.114-15.477-2.439-17.407c-0.486-2.889-0.149-3.843,1.9-5.386
			c1.369-1.03,3.439-2.7,4.598-3.712c2.059-1.794,2.129-1.763,3.012,1.318l0.905,3.156l5.384-1.125
			c2.959-0.618,6.333-1.37,7.493-1.671c1.162-0.301,4.989-1.241,8.507-2.089c3.518-0.849,8.166-1.979,10.329-2.514
			c2.164-0.534,14.468-3.507,27.345-6.605l23.41-5.632l3.759,3.532c2.067,1.943,3.794,3.964,3.838,4.49
			c0.043,0.526,1.731,1.895,3.754,3.04c2.022,1.145,3.498,2.291,3.28,2.55c-0.462,0.544-0.904,4.511-1.259,11.301
			c-0.139,2.646-0.62,5.081-1.073,5.414c-2.204,1.625-0.217,5.93,4.393,9.515l4.79,3.725l-5.475,6.595
			c-3.012,3.628-6.659,7.167-8.106,7.867c-1.445,0.698-8.38,2.725-15.408,4.501c-7.029,1.776-13.664,3.454-14.745,3.729
			c-1.081,0.272-9.925,2.545-19.653,5.049c-23.006,5.921-21.369,5.547-30.711,7.03
			C1821.035,1288.745,1819.995,1288.694,1819.024,1287.161z"/>
		<path id="US-RI" fill="#D3D3D3" d="M1970.966,1200.415c-1.259-3.622-2.637-7.573-3.063-8.779c-0.71-2.007-0.436-2.222,3.224-2.521
			c3.719-0.304,4.256,0.011,7.683,4.499c2.823,3.696,3.48,5.228,2.805,6.543c-0.883,1.72-6.546,6.696-7.729,6.792
			C1973.539,1206.978,1972.225,1204.036,1970.966,1200.415z"/>
		<path id="US-SC" fill="#D3D3D3" d="M1849.481,1491.487c-1.45-0.614-3.887-3.072-5.416-5.461s-3.057-4.322-3.395-4.295
			c-1.387,0.114-6.31-4.905-6.445-6.571c-0.081-0.988-1.995-3.688-4.254-5.997c-2.259-2.311-5.586-5.82-7.395-7.802
			c-1.808-1.979-5.922-5.356-9.143-7.501c-3.219-2.147-8.332-6.592-11.359-9.876c-3.028-3.284-7.174-6.666-9.212-7.516
			c-4.842-2.019-6.292-3.601-5.809-6.343c0.436-2.475,5.027-5.322,16.175-10.028c11.693-4.937,33.049-5.668,33.419-1.145
			c0.057,0.693,4.27,0.607,12.411-0.252c9.656-1.017,12.747-1.016,14.267,0.009c1.068,0.722,2.671,1.785,3.563,2.366
			c0.894,0.581,4.496,3.047,8.006,5.478c3.511,2.433,8.483,5.271,11.052,6.307c2.567,1.038,4.867,2.038,5.109,2.223
			c0.241,0.186-1.179,2.617-3.158,5.402c-4.409,6.207-5.222,8.1-5.698,13.266c-0.256,2.771-1.438,5.243-3.754,7.854
			c-1.859,2.096-4.999,6.094-6.979,8.884c-1.979,2.79-7.143,8.909-11.475,13.596
			C1852.447,1492.245,1852.003,1492.558,1849.481,1491.487z"/>
		<path id="US-SD" fill="#D3D3D3" d="M1490.65,1241.845c-4.282-1.801-6.048-1.989-11.136-1.193
			c-5.672,0.888-6.314,0.763-10.42-2.022c-4.43-3.005-7.749-3.596-22.787-4.048c-3.044-0.092-6.219-0.278-7.059-0.416
			c-0.838-0.137-4.238-0.31-7.556-0.381c-3.316-0.073-7.165-0.201-8.552-0.284c-1.386-0.082-4.56-0.234-7.051-0.341
			c-2.492-0.104-6.343-0.267-8.558-0.361c-2.217-0.094-9.016-0.428-15.111-0.742c-6.096-0.313-13.8-0.655-17.119-0.758
			c-13.868-0.432-15.117-0.66-15.083-2.756c0.034-2.03,2.946-36.394,3.462-40.839c0.16-1.372,0.4-4.1,0.537-6.065
			c0.135-1.964,0.657-8.347,1.16-14.182c0.873-10.143,1.021-10.616,3.364-10.738c2.664-0.14,15.081,0.146,17.853,0.413
			c2.503,0.239,10.039,0.621,15.812,0.801c2.766,0.086,6.166,0.255,7.557,0.377c1.389,0.12,5.239,0.268,8.554,0.325
			c3.316,0.058,6.716,0.224,7.555,0.367c0.841,0.142,7.416,0.498,14.613,0.788c13.294,0.537,39.817,1.819,45.331,2.192
			c1.665,0.113,4.278,0.139,5.809,0.061c2.421-0.127,2.671,0.112,1.919,1.842c-0.636,1.466-0.195,3.601,1.683,8.14
			c1.673,4.049,2.465,7.531,2.314,10.185c-0.369,6.498-0.258,15.192,0.371,28.984c0.322,7.103,0.177,13.216-0.323,13.586
			c-0.503,0.369-0.485,4.807,0.036,9.861C1498.916,1245.202,1498.833,1245.285,1490.65,1241.845z"/>
		<path id="US-TN" fill="#D3D3D3" d="M1638.774,1440.772c-0.22-2.84,1.464-8.747,3.73-13.088c3.145-6.025,5.151-12.647,5.413-17.862
			c0.239-4.752,1.809-7.14,5-7.604c1.229-0.177,7.814-1.101,14.634-2.052c10.357-1.443,12.622-2.054,13.744-3.705
			c1.222-1.797,3.586-2.213,26.211-4.616c66.131-7.023,81.034-8.748,94.175-10.894c3.677-0.6,6.708-0.8,6.736-0.443
			c0.111,1.357-1.964,5.187-3.833,7.075c-1.071,1.081-5.079,3.771-8.903,5.976c-3.825,2.205-9.347,6.458-12.27,9.451
			c-2.924,2.993-7.281,6.482-9.684,7.751c-2.402,1.271-5.562,4.047-7.021,6.171c-1.458,2.123-4.776,5.483-7.373,7.468
			c-2.597,1.983-4.921,3.921-5.166,4.304c-0.956,1.495-12.091,2.872-58.604,7.244c-26.56,2.497-50.182,4.874-52.494,5.283
			C1640.227,1441.734,1638.836,1441.585,1638.774,1440.772z"/>
		<path id="US-TX" fill="#247BA0" d="M1482.215,1696.644c-4.798-2.941-6.482-3.438-10.555-3.104
			c-3.824,0.312-6.002-0.229-10.339-2.567c-3.022-1.631-7.338-3.422-9.591-3.98c-2.254-0.559-4.73-1.732-5.504-2.608
			c-0.774-0.875-2.089-2.171-2.923-2.878c-1.425-1.208-4.068-8.711-3.212-9.115c0.217-0.103-0.896-1.199-2.472-2.437
			c-2.517-1.977-3.028-3.261-4.199-10.539c-1.182-7.354-1.862-9.038-6.035-14.928c-7.468-10.539-15.441-24.037-16.514-27.954
			c-1.441-5.269-7.296-14.35-11.089-17.203c-1.813-1.364-4.283-4.072-5.486-6.018c-1.769-2.857-2.919-3.603-5.983-3.873
			c-2.086-0.186-6.303-0.676-9.373-1.091c-8.43-1.141-14.652,1.007-16.721,5.772c-0.866,1.992-1.53,4.159-1.477,4.814
			c0.054,0.655-1.282,2.916-2.968,5.024c-2.387,2.983-3.814,3.88-6.442,4.04c-4.766,0.29-5.873-0.211-13.948-6.312
			c-10.827-8.182-16.521-14.841-17.288-20.215c-0.345-2.423-1.621-6.486-2.835-9.028c-1.215-2.543-2.317-5.95-2.45-7.573
			c-0.245-2.984-3.198-6.337-12.755-14.481c-2.391-2.038-5.273-5.305-6.404-7.258c-1.131-1.954-2.925-3.93-3.985-4.391
			c-1.061-0.462-2.556-2.251-3.32-3.977c-0.765-1.729-2.606-4.217-4.091-5.533c-1.763-1.562-2.639-3.24-2.527-4.838
			c0.16-2.279,0.589-2.481,6.316-2.981c3.38-0.293,10.799-0.122,16.485,0.38c11.058,0.979,14.711,1.278,20.69,1.703
			c2.082,0.148,5.61,0.512,7.842,0.807c2.232,0.295,6.324,0.651,9.095,0.791c2.771,0.141,5.309,0.389,5.642,0.552
			c1.501,0.738,13.007,0.511,12.946-0.256c-0.038-0.472,0.298-4.727,0.75-9.454c0.45-4.727,0.895-9.957,0.989-11.619
			c0.094-1.664,1.207-15.752,2.471-31.307c1.266-15.556,2.422-29.816,2.57-31.691c0.148-1.876,0.373-4.36,0.5-5.52
			c0.126-1.159,0.338-3.734,0.47-5.721c0.132-1.985,0.359-4.714,0.507-6.061c0.146-1.349,0.398-4.285,0.558-6.527
			c0.161-2.243,0.378-4.763,0.486-5.599c0.107-0.837,0.188-2.012,0.182-2.612c-0.009-0.772,2.495-0.926,8.596-0.527
			c4.735,0.309,11.42,0.619,14.856,0.688c3.436,0.07,6.933,0.244,7.773,0.386c0.84,0.143,4.016,0.333,7.059,0.424
			c3.043,0.092,8.258,0.364,11.588,0.606c3.331,0.241,6.443,0.412,6.917,0.378c0.474-0.035,0.861,3.436,0.862,7.712
			c0.005,16.453-0.301,40.988-0.529,42.649c-0.314,2.279,1.044,3.088,7.819,4.656c3.41,0.79,6.585,2.31,8.065,3.861
			c2.552,2.676,8.448,4.189,16.522,4.239c4.81,0.031,10.194,2.367,12.394,5.379c0.877,1.202,2.468,1.862,4.154,1.724
			c1.502-0.122,5.271,0.512,8.376,1.41c5.174,1.496,7.35,1.468,26.06-0.338c22.377-2.159,21.771-2.23,32.25,3.747
			c2.506,1.429,6.125,2.896,8.043,3.261l3.487,0.662l1.778,21.741l1.78,21.744l3.415,6.145c1.879,3.379,4.177,8.828,5.105,12.106
			c1.528,5.396,1.529,6.347,0.02,10.018c-0.916,2.231-1.749,6.996-1.849,10.589c-0.1,3.592-0.811,8.843-1.579,11.667
			c-0.77,2.823-1.576,6.615-1.792,8.427c-0.306,2.565-0.897,3.334-2.682,3.48c-3.934,0.322-9.044,3.579-12.47,7.948
			c-3.499,4.464-13.266,11.554-25.066,18.196c-6.448,3.63-12.052,7.45-13.305,9.073c-0.25,0.321-2.552,2.529-5.116,4.904
			c-5.868,5.435-8.662,9.085-13.77,17.983c-3.93,6.845-4.038,7.3-3.317,13.816c0.409,3.706,1.272,8.049,1.919,9.652
			c1.332,3.299,3.577,19.083,2.997,21.062C1489.986,1700.809,1488.32,1700.389,1482.215,1696.644z"/>
		<path id="US-UT" fill="#D3D3D3" d="M1169.053,1231.31c-0.75,0.074-1.07,0.489-1.24,1.324c-0.191,0.936-1.783,8.806-3.553,17.504
			c-1.771,8.698-4.409,21.558-5.845,28.572c-1.437,7.016-3.71,18.263-5.071,24.998c-1.362,6.732-3.627,17.753-5.02,24.49
			c-1.392,6.735-2.809,13.624-3.136,15.307c-0.329,1.683-1.228,6.279-2.019,10.199c-0.792,3.919-1.364,7.164-1.259,7.221
			c0.104,0.056,22.166,3.739,49.019,8.184c48.013,7.95,51.361,8.463,51.303,7.748c-0.017-0.197,1.979-14.696,4.449-32.221
			c2.47-17.525,4.625-33.019,4.771-34.41c0.146-1.392,1.13-8.623,2.196-16.076c1.064-7.453,2.047-14.732,2.188-16.17
			c0.141-1.437,0.449-2.957,0.664-3.378c0.214-0.422-1.553-0.92-3.917-1.122c-8.302-0.709-35.103-4.424-36.281-5.026
			c-0.656-0.333-1.006-1.286-0.768-2.1c0.656-2.239,4.105-21.057,4.139-22.601c0.025-1.156-17.255-5.499-48.756-12.251
			C1170.105,1231.327,1169.503,1231.265,1169.053,1231.31z M1182.529,1243.877c0.345-0.069,0.786,0.007,1.388,0.105
			c3.682,0.61,7.637,4.893,7.983,8.659c0.322,3.52,2.227,4.177,4.161,1.416c1.476-2.106,3.957-0.523,3.474,2.224
			c-0.19,1.081,0.291,3.363,1.041,5.057c1.517,3.425,0.695,5.452-2.806,7.097c-5.423,2.548-5.938,2.541-8.748-0.005
			c-5.619-5.092-7.604-9.663-7.588-17.628C1181.445,1245.52,1181.494,1244.088,1182.529,1243.877z"/>
		<g id="US-VA">
			<path fill="#D3D3D3" d="M1785.66,1372.528c7.299-10.318,11.974-14.974,14.34-14.28c0.891,0.26,1.646,0.824,1.681,1.252
				c0.035,0.43,1.646,0.944,3.581,1.146c2.632,0.273,6.238-0.792,14.321-4.232c9.733-4.143,10.906-4.912,11.838-7.782
				c0.568-1.752,1.801-4.376,2.739-5.832c0.938-1.457,2.886-6.583,4.329-11.391c1.443-4.809,2.868-9.064,3.165-9.456
				s2.312-1.132,4.478-1.645c6.636-1.571,7.078-1.954,7.424-6.436c0.266-3.455,1.247-5.199,5.345-9.501
				c2.76-2.897,4.951-5.574,4.867-5.946c-0.581-2.562-0.004-3.107,2.518-2.378c4.17,1.207,7.335,0.564,8.312-1.686
				c0.891-2.049,0.902-2.05,3.025-0.247c1.172,0.995,2.524,1.777,3.006,1.737c0.482-0.039,2.562,0.475,4.62,1.145
				c3.702,1.203,3.729,1.247,2.309,3.859c-1.343,2.464-1.297,2.895,0.662,6.437c1.704,3.078,3.297,4.259,8.425,6.238
				c3.477,1.344,7.593,2.644,9.146,2.89c3.167,0.504,5.448,3.168,4.085,4.771c-0.547,0.645,0.327,2.207,2.359,4.225
				c2.548,2.531,3.313,4.179,3.646,7.85c0.355,3.914,0.95,5.052,3.772,7.217c6.816,5.227,7.368,5.794,7.527,7.747
				c0.09,1.096-0.395,2.072-1.076,2.169c-1.832,0.259-5.338,1.207-13.008,3.514c-6.84,2.058-34.49,8.644-44.778,10.666
				c-2.988,0.587-6.09,1.291-6.896,1.562c-0.806,0.271-3.971,0.972-7.031,1.557c-3.062,0.584-6.391,1.289-7.397,1.567
				c-3.223,0.889-10.419,2.34-21.581,4.351c-5.982,1.077-12.655,2.296-14.829,2.708c-2.174,0.411-9.313,1.451-15.864,2.31
				c-6.552,0.858-12.714,1.877-13.692,2.262C1780.004,1381.298,1781.977,1377.734,1785.66,1372.528z"/>
			<path fill="#D3D3D3" d="M1921.796,1337.631c-0.967-1.312-0.339-9.719,1.075-14.396c0.644-2.128,0.878-4.704,0.52-5.725
				c-0.688-1.959,1.275-3.149,5.857-3.551c1.857-0.162,2.222,0.172,1.746,1.6c-0.33,0.992-1.16,3.864-1.842,6.379
				c-0.683,2.516-1.96,5.442-2.84,6.503c-1.851,2.234-1.943,3.636-0.268,4.046c0.808,0.198,0.692,1.187-0.361,3.123
				C1924.052,1338.61,1922.942,1339.186,1921.796,1337.631z"/>
		</g>
		<path id="US-VT" fill="#D3D3D3" d="M1935.891,1172.704c-0.335-4.088-6.435-18.57-8.673-20.593
			c-1.596-1.442-2.377-3.747-3.158-9.333c-0.572-4.08-1.41-8.518-1.86-9.859c-0.452-1.343-1.221-4.035-1.708-5.983l-0.887-3.542
			l9.148-2.903c5.031-1.596,11.196-3.35,13.701-3.896l4.553-0.993l1.075,4.587c0.988,4.206,0.843,4.901-1.751,8.396l-2.829,3.808
			l1.976,20.302c1.702,17.503,1.77,20.325,0.483,20.474c-0.819,0.095-3.377,0.571-5.682,1.06
			C1936.356,1175.055,1936.074,1174.958,1935.891,1172.704z"/>
		<path id="US-WA" fill="#D3D3D3" d="M1117.737,1108.789c-14.843-4.011-21.871-4.955-35.799-4.807
			c-10.549,0.112-16.465-0.801-24.955-3.851c-4.232-1.519-10.659-3.133-14.283-3.589c-3.624-0.453-7.194-1.483-7.932-2.291
			c-0.738-0.806-1.542-3.732-1.787-6.503c-0.399-4.534-0.903-5.453-5.048-9.204c-3.369-3.047-5.875-4.374-9.331-4.937l-4.725-0.771
			l0.533-3.817c0.653-4.668,2.84-33.346,3.324-43.582c0.195-4.102,0.908-7.865,1.585-8.364c1.423-1.049,4.214,0.294,11.824,5.692
			c4.587,3.254,16.781,7.56,20.665,7.297c0.548-0.037,0.739-1.474,0.424-3.191c-0.436-2.377,1.659-11.796,3.215-14.458
			c0.104-0.179,2.908,0.553,6.228,1.626c3.32,1.072,24.071,7.143,46.112,13.487c22.041,6.346,40.257,11.666,40.481,11.824
			c0.223,0.158-1.163,6.188-3.083,13.4c-1.919,7.212-5.461,20.499-7.871,29.524c-3,11.24-4.396,18.647-4.433,23.502l-0.051,7.09
			L1117.737,1108.789z"/>
		<path id="US-WI" fill="#D3D3D3" d="M1625.914,1241.449c-19.972,0.969-20.455,0.724-22.926-11.66
			c-2.534-12.691-7.484-24.146-11.017-25.491c-1.225-0.466-7-4.55-12.834-9.075l-10.605-8.227l-0.975-12.205
			c-0.845-10.577-0.752-12.36,0.695-13.374c5.527-3.876,7.002-6.272,6.738-10.955c-0.418-7.415,0.286-10.523,2.492-11.011
			c3.55-0.785,18.44-6.966,19.345-8.03c1.507-1.777,2.305-1.264,2.229,1.431c-0.056,1.986,0.54,2.766,2.55,3.347
			c3.263,0.945,7.071,4.143,8.169,6.861c0.66,1.632,2.89,2.463,10.748,4.007c12.04,2.362,26.548,6.199,29.591,7.823
			c3.334,1.78,10.007,11.423,11.2,16.188c0.575,2.298,1.596,4.134,2.267,4.078c1.929-0.157,5.348-4.423,6.576-8.204
			c1.38-4.247,3.542-4.897,2.784-0.839c-0.287,1.541-0.38,3.806-0.209,5.033c0.173,1.228-0.099,2.267-0.601,2.308
			c-2.064,0.169-3.697,3.645-4.285,9.131c-0.815,7.609-1.904,13.492-2.948,15.932c-2.266,5.293-2.087,18.53,0.443,33.008l1.353,7.74
			l-12.871,0.728C1646.747,1240.393,1634.188,1241.048,1625.914,1241.449z"/>
		<path id="US-WV" fill="#D3D3D3" d="M1805.605,1357.022c-6.597-1.843-19.034-13.598-20.188-19.078
			c-0.459-2.18,0.072-4.114,1.937-7.047c1.413-2.223,2.498-5.074,2.408-6.336c-0.113-1.654,0.754-2.769,3.097-3.98
			c2.568-1.329,3.333-2.438,3.628-5.259c0.45-4.322,3.112-8.162,7.991-11.526c4.674-3.222,7.697-12.078,7.012-20.535
			c-0.623-7.688,0.917-8.294,2.366-0.93c1.77,8.988,3.323,9.903,14.585,8.583l9.069-1.063l1.493,4.895
			c1.337,4.381,1.75,4.847,3.93,4.434c1.339-0.253,4.804-2.425,7.7-4.825c6.31-5.229,15.56-8.45,19.84-6.908
			c3.019,1.088,3.27,1.813,1.574,4.577c-1.169,1.908-1.341,1.911-5.652,0.094c-4.95-2.087-5.774-1.656-6.227,3.245
			c-0.302,3.282-4.141,8.222-7.771,9.997c-1.066,0.523-1.764,2.471-1.968,5.488c-0.34,5.068-0.536,5.25-6.844,6.413
			c-2.332,0.431-4.342,0.96-4.466,1.178c-0.124,0.219-1.579,4.797-3.233,10.175c-1.655,5.378-4.151,11.868-5.547,14.422
			c-1.395,2.554-2.51,4.956-2.479,5.336c0.053,0.65-5.374,3.284-15.454,7.498
			C1809.514,1357.077,1807.203,1357.469,1805.605,1357.022z"/>
		<path id="US-WY" fill="#D3D3D3" d="M1341.805,1281.736c-4.742-0.635-11.819-1.587-15.725-2.117
			c-3.906-0.528-14.858-1.94-24.337-3.136c-19.874-2.505-61.349-7.821-72.5-9.292c-4.184-0.552-8.175-0.959-8.868-0.905
			c-0.693,0.054-1.112-0.629-0.93-1.518c0.182-0.89,0.807-4.59,1.388-8.224c0.582-3.635,1.385-7.765,1.787-9.177
			c0.401-1.413,0.844-3.963,0.983-5.667c0.257-3.143,2.207-16.231,6.801-45.64c1.397-8.943,2.842-18.822,3.212-21.953
			c0.37-3.131,1.177-6.516,1.793-7.522c1.232-2.012,1.005-2.03,51.169,4.319c15.423,1.951,39.778,5.016,50.182,6.312
			c0.557,0.07,6.179,0.776,12.492,1.57l11.479,1.444l-0.164,3.599c-0.09,1.979-1.608,19.972-3.374,39.981
			c-1.765,20.011-3.3,37.52-3.409,38.907c-0.358,4.519-0.733,8.489-1.327,14.042c-0.321,2.999-0.569,5.615-0.553,5.815
			C1351.948,1283.076,1351.556,1283.043,1341.805,1281.736z"/>
	</g>
</g>
</svg>
